<svg width="350" height="350" viewBox="0 0 350 350" fill="none" xmlns="http://www.w3.org/2000/svg">
<path d="M117.491 242.08C117.27 242.459 116.922 242.71 116.489 242.803C116.186 242.853 115.891 242.896 115.597 242.938C115.3 242.981 115.005 243.024 114.7 243.074C114.579 243.096 114.469 243.089 114.345 243.081C114.302 243.078 114.256 243.076 114.211 243.074C114.096 241.76 114.064 240.456 114.029 239.194C114.016 238.687 114.003 238.183 113.983 237.674C114.256 237.509 114.536 237.481 114.841 237.451C115.439 237.418 115.993 237.388 116.541 237.551C117.262 237.778 117.69 238.259 117.816 238.984C117.877 239.32 117.909 239.681 117.942 240.03L117.95 240.121C118.013 240.818 117.859 241.478 117.491 242.08ZM120.258 239.462C120.25 239.332 120.241 239.207 120.222 239.073L119.918 237.758C119.825 237.332 119.622 236.925 119.252 236.429C118.909 236.046 118.55 235.814 118.152 235.721C117.571 235.576 117.062 235.478 116.549 235.413C115.976 235.366 115.41 235.405 114.863 235.444C114.653 235.457 114.445 235.472 114.245 235.483C114.139 235.483 114.038 235.515 113.94 235.548C113.899 235.561 113.858 235.576 113.815 235.587L113.786 235.593L113.765 235.615C113.763 235.617 113.758 235.621 113.754 235.623L113.724 235.619C113.453 235.574 113.193 235.636 112.94 235.699C112.751 235.743 112.57 235.786 112.392 235.786L112.342 235.797C112.323 235.807 112.299 235.818 112.273 235.829C112.21 235.855 112.15 235.881 112.113 235.92L112.08 235.95V235.996C112.08 236.052 112.082 236.104 112.085 236.154C112.089 236.264 112.093 236.362 112.067 236.403C111.946 236.567 111.946 236.7 111.946 236.84V237.473C111.929 237.691 111.92 237.912 111.911 238.133C111.903 238.352 111.896 238.568 111.879 238.796V241.221C111.844 242.03 111.844 242.855 111.844 243.652V244.873C111.862 245.174 111.862 245.469 111.862 245.783C111.862 246.088 111.862 246.406 111.879 246.722C111.879 247.634 111.916 248.608 111.946 249.388V252.06C111.981 252.493 112.013 252.913 112.013 253.305C112.03 253.974 112.037 254.634 112.046 255.292C112.054 255.959 112.063 256.62 112.08 257.28C112.08 257.65 112.08 258.036 112.184 258.454L112.206 258.536H112.29H112.509L113.747 258.328C114.334 258.252 114.423 258.242 114.453 257.843C114.46 257.763 114.469 257.663 114.488 257.516V257.449C114.488 257.129 114.479 256.806 114.471 256.486C114.464 256.165 114.456 255.847 114.456 255.522C114.432 255.141 114.44 254.756 114.447 254.381C114.451 254.19 114.456 253.998 114.456 253.798C114.438 253.565 114.43 253.329 114.421 253.093C114.412 252.857 114.404 252.618 114.386 252.389V252.092C114.399 251.936 114.414 251.78 114.427 251.625C114.458 251.313 114.488 250.99 114.488 250.668C114.488 250.267 114.481 249.866 114.473 249.461C114.464 249.05 114.456 248.632 114.456 248.208V246.722C114.456 246.547 114.438 246.365 114.421 246.188C114.404 246.017 114.386 245.839 114.384 245.649C114.378 245.618 114.378 245.592 114.388 245.577C114.401 245.56 114.436 245.549 114.475 245.549C114.915 245.586 115.348 245.486 115.77 245.397C115.854 245.378 115.939 245.361 116.023 245.343L116.099 245.328C116.38 245.265 116.701 245.194 116.95 245.068C117.608 244.819 118.284 244.52 119.011 244.157C119.622 243.89 119.983 243.479 120.12 242.901C120.377 241.792 120.347 240.679 120.291 239.826C120.274 239.698 120.267 239.579 120.258 239.462Z" fill="black"/>
<path d="M125.447 250.872C125.447 250.666 125.473 250.488 125.503 250.283L125.514 250.196C125.514 249.802 125.514 249.391 125.546 248.988C125.581 248.28 125.615 247.572 125.648 246.833C125.665 246.626 125.687 246.411 125.713 246.195C125.739 245.95 125.765 245.699 125.784 245.452C125.845 244.735 125.914 243.926 126.018 243.129C126.152 242.131 126.287 241.154 126.456 240.167C126.592 239.482 126.835 238.818 127.146 238.253C127.242 238.125 127.322 238.051 127.478 238.025C127.649 238.004 127.805 237.945 127.956 237.889C128.054 237.852 128.155 237.813 128.259 237.787C128.454 237.757 128.688 237.757 128.956 237.755C129.015 237.77 129.091 237.802 129.162 237.835C129.238 237.867 129.32 237.904 129.379 237.917C129.55 237.984 129.686 238.036 129.82 238.088C129.955 238.138 130.089 238.188 130.256 238.255C130.702 238.447 131 238.846 131.293 239.233C131.596 239.599 131.806 240.071 131.91 240.632C131.999 241.193 132.109 241.888 132.18 242.555C132.248 243.059 132.282 243.57 132.315 244.064C132.349 244.668 132.349 245.283 132.349 245.879C132.349 246.723 132.349 247.596 132.28 248.477C132.28 248.704 132.248 248.934 132.213 249.176C132.185 249.349 132.161 249.529 132.146 249.715C132.111 250.051 132.079 250.389 132.044 250.727L132.012 251.105C131.927 252.101 131.841 253.132 131.544 254.111C131.429 254.451 131.293 254.676 131.098 254.845C130.546 255.395 129.894 255.761 129.162 255.927C128.586 256.042 128.121 256.042 127.694 255.927L127.53 255.925C127.168 255.925 126.869 255.795 126.553 255.657C126.421 255.6 126.289 255.542 126.152 255.494C125.784 255.351 125.581 255.079 125.514 254.643C125.481 254.165 125.447 253.606 125.447 253.065V250.872ZM124.061 257.504C124.544 257.85 125.072 258.06 125.624 258.129C125.999 258.192 126.365 258.216 126.75 258.242C126.99 258.257 127.237 258.272 127.497 258.301C127.577 258.301 127.657 258.309 127.74 258.316C127.826 258.324 127.913 258.333 128.006 258.333H128.01C128.281 258.316 128.543 258.292 128.807 258.266C129.067 258.24 129.327 258.216 129.589 258.199C130.074 258.199 130.563 258.127 131.003 257.991C131.416 257.87 131.737 257.72 131.983 257.534C132.438 257.177 132.8 256.674 133.062 256.04C133.35 255.317 133.521 254.533 133.683 253.777L133.776 253.357C133.928 252.669 133.969 251.935 134.006 251.227C134.019 250.986 134.032 250.746 134.049 250.508C134.062 250.272 134.06 250.034 134.056 249.804C134.049 249.505 134.045 249.196 134.079 248.908C134.097 248.836 134.105 248.765 134.114 248.696C134.123 248.631 134.129 248.568 134.149 248.477C134.149 247.801 134.179 247.13 134.211 246.418L134.216 242.637C134.198 242.304 134.175 241.97 134.151 241.637C134.125 241.295 134.099 240.953 134.082 240.611C134.051 239.937 133.911 239.24 133.64 238.43C133.603 238.281 133.527 238.168 133.46 238.066C133.358 237.887 133.235 237.705 133.125 237.545L133.016 237.384C132.789 237.057 132.488 236.802 132.105 236.611C131.453 236.237 130.756 236.064 130.017 235.882L129.786 235.825C129.405 235.713 129.037 235.756 128.684 235.791C128.578 235.802 128.474 235.812 128.374 235.821C128.29 235.821 128.194 235.821 128.129 235.886C128.025 235.99 127.889 235.99 127.718 235.99C127.577 236.012 127.432 236.025 127.285 236.038C126.928 236.074 126.557 236.109 126.222 236.228C125.951 236.295 125.646 236.401 125.447 236.687C125.377 236.815 125.304 236.938 125.232 237.057C125.059 237.354 124.894 237.633 124.799 237.947C124.394 239.002 124.173 239.831 124.085 240.632C123.983 241.247 123.914 241.864 123.846 242.501C123.812 243.122 123.74 243.757 123.68 244.32L123.578 245.636C123.543 246.143 123.502 246.649 123.459 247.156C123.418 247.663 123.374 248.167 123.342 248.676C123.325 249.2 123.316 249.722 123.307 250.246C123.299 250.768 123.29 251.289 123.275 251.818C123.275 252.532 123.242 253.262 123.206 254.076C123.206 255.092 123.301 255.871 123.513 256.603C123.615 256.943 123.727 257.242 124.061 257.504" fill="black"/>
<path d="M143.086 244.335C143.037 244.409 142.928 244.499 142.807 244.528C142.344 244.671 141.928 244.796 141.504 244.896C141.289 244.928 141.068 244.945 140.858 244.963C140.679 244.976 140.495 244.989 140.308 245.013C140.252 243.952 140.246 242.914 140.28 241.669C140.328 240.905 140.341 240.126 140.356 239.372C140.363 239.024 140.369 238.675 140.38 238.329C140.404 238.326 140.425 238.324 140.449 238.322C140.538 238.316 140.616 238.309 140.696 238.331C140.876 238.357 141.055 238.363 141.229 238.37C141.525 238.38 141.809 238.391 142.093 238.491C142.521 238.647 142.846 238.917 143.078 239.316C143.249 239.658 143.361 240.024 143.439 240.5C143.463 240.643 143.487 240.786 143.511 240.927C143.595 241.414 143.673 241.875 143.673 242.339C143.673 243.075 143.491 243.692 143.086 244.335ZM147.099 248.49C146.934 248.035 146.782 247.607 146.43 247.225C146.293 247.067 146.146 246.929 145.992 246.779C145.912 246.706 145.832 246.628 145.75 246.548C145.498 246.268 145.187 245.965 144.751 245.773C144.812 245.705 144.868 245.643 144.91 245.582L145.728 244.658C145.802 244.549 145.873 244.404 145.914 244.285L145.925 244.233C146.018 243.82 146.118 243.389 146.183 243.005C146.228 242.817 146.252 242.661 146.252 242.54C146.252 242.094 146.252 241.633 146.287 241.163C146.317 240.431 146.202 239.645 145.945 238.831C145.782 238.307 145.46 237.844 145.215 237.545C144.782 237.04 144.214 236.702 143.574 236.566C142.889 236.401 142.116 236.215 141.354 236.36C141.283 236.36 141.211 236.369 141.14 236.378C141.075 236.386 141.012 236.395 140.938 236.395C140.306 236.46 139.652 236.529 139.059 236.631C138.936 236.631 138.771 236.672 138.669 236.772C138.578 236.865 138.483 236.958 138.392 237.019L138.34 237.053L138.345 237.116C138.375 237.571 138.412 238.14 138.379 238.655C138.347 239.472 138.28 240.303 138.217 241.107L138.206 241.278C138.173 241.927 138.139 242.596 138.076 243.241L137.873 245.74C137.855 246.238 137.829 246.734 137.803 247.232C137.779 247.715 137.753 248.196 137.738 248.678C137.738 249.22 137.732 249.759 137.725 250.298C137.712 251.627 137.699 253 137.771 254.353C137.805 254.858 137.831 255.373 137.855 255.886C137.881 256.402 137.905 256.917 137.94 257.417C137.94 257.556 137.94 257.731 137.976 257.909L137.992 257.995H138.08C138.098 257.995 138.115 258 138.13 258.002C138.178 258.011 138.241 258.017 138.306 257.995C138.371 257.995 138.435 257.987 138.498 257.978C138.563 257.969 138.626 257.961 138.708 257.961C139.072 257.896 139.414 257.861 139.745 257.829C140.14 257.79 140.246 257.671 140.246 257.29C140.28 256.917 140.28 256.566 140.246 256.194C140.181 255.421 140.248 254.639 140.315 253.875V249.644C140.282 249.215 140.246 248.774 140.246 248.293C140.226 248.167 140.233 248.02 140.241 247.879C140.243 247.838 140.246 247.795 140.246 247.754C140.988 247.576 141.753 247.511 142.569 247.539C143.128 247.539 143.5 247.814 143.823 248.462C144.08 248.938 144.197 249.512 144.249 249.908C144.405 250.939 144.511 251.987 144.585 253.208C144.648 254.024 144.658 254.877 144.619 255.897L144.622 256.174C144.626 256.727 144.63 257.296 144.485 257.887C144.485 257.959 144.492 258.032 144.5 258.104C144.509 258.166 144.518 258.229 144.518 258.294V258.402H144.626C144.658 258.402 144.684 258.407 144.71 258.409C144.738 258.413 144.764 258.418 144.795 258.418C144.825 258.418 144.853 258.413 144.888 258.4C145.646 258.363 146.28 258.331 146.954 258.266C147.196 258.266 147.332 258.132 147.332 257.898C147.393 257.212 147.465 256.434 147.499 255.705C147.534 255.295 147.534 254.916 147.534 254.522C147.566 254.256 147.601 253.981 147.601 253.68C147.636 253.247 147.668 252.801 147.668 252.394C147.701 251.285 147.666 249.986 147.192 248.743C147.159 248.659 147.127 248.574 147.099 248.49" fill="black"/>
<path d="M162.398 243.735C162.43 243.512 162.463 243.321 162.495 243.131L162.506 243.059C162.569 242.605 162.636 242.135 162.669 241.708C162.734 241.149 162.803 240.571 162.838 239.995C162.853 239.946 162.87 239.891 162.885 239.837C162.894 239.803 162.905 239.766 162.913 239.733C163.489 239.625 164.156 239.517 164.823 239.51C165.183 240.275 165.765 243.475 165.791 244.837C165.67 244.854 165.54 244.874 165.414 244.895C165.254 244.919 165.096 244.945 164.946 244.96C164.788 244.975 164.622 244.978 164.455 244.98C164.204 244.984 163.942 244.988 163.693 245.03C163.47 245.064 163.242 245.105 163.011 245.149C162.786 245.19 162.56 245.233 162.344 245.268L162.311 245.276C162.296 245.285 162.272 245.281 162.236 245.274C162.223 245.272 162.21 245.27 162.197 245.27C162.197 245.266 162.197 245.259 162.194 245.253L162.398 243.735ZM159.206 257.625C159.687 257.594 160.163 257.538 160.668 257.478L160.856 257.454C161.151 257.413 161.218 257.33 161.218 257.016C161.231 256.77 161.237 256.521 161.246 256.274C161.261 255.786 161.274 255.286 161.32 254.793C161.337 254.544 161.361 254.292 161.387 254.046C161.413 253.788 161.439 253.53 161.452 253.281C161.471 253.156 161.495 253.028 161.519 252.898C161.582 252.534 161.649 252.158 161.625 251.783C161.625 251.393 161.655 251.001 161.686 250.622C161.701 250.447 161.716 250.272 161.725 250.103C161.757 249.642 161.794 249.163 161.859 248.719L161.868 248.62C161.898 248.199 161.928 247.764 161.984 247.325C162.619 247.253 163.264 247.227 163.892 247.203C164.604 247.173 165.336 247.143 166.072 247.048C166.453 251.09 166.913 254.438 167.514 257.571L167.532 257.659H168.567C168.736 257.659 168.915 257.651 169.093 257.642C169.268 257.633 169.444 257.625 169.628 257.625C169.935 257.581 169.989 257.445 169.989 257.172C169.972 256.934 169.946 256.689 169.922 256.447C169.896 256.202 169.87 255.958 169.853 255.717C169.838 255.566 169.82 255.405 169.803 255.245C169.786 255.085 169.768 254.925 169.751 254.767C169.617 253.992 169.515 253.238 169.413 252.508C169.294 251.69 169.201 250.839 169.108 250.016L169.078 249.748C169.045 249.447 169.008 249.146 168.967 248.84C168.924 248.496 168.879 248.148 168.844 247.788C168.809 247.507 168.766 247.214 168.727 246.924C168.682 246.625 168.64 246.327 168.606 246.036C168.578 245.785 168.539 245.532 168.5 245.283C168.443 244.923 168.391 244.586 168.37 244.259C168.37 243.817 168.3 243.406 168.231 243.009C168.194 242.784 168.158 242.574 168.132 242.356C168.062 241.883 167.958 241.424 167.857 240.981C167.813 240.784 167.768 240.589 167.727 240.394C167.625 239.915 167.514 239.43 167.404 238.943C167.296 238.467 167.188 237.993 167.086 237.527C167.045 237.313 166.945 237.213 166.711 237.17C166.371 237.17 166.005 237.133 165.683 237.068C165.483 237.036 165.282 236.994 165.081 236.951C164.879 236.91 164.674 236.867 164.47 236.832L164.435 236.825C163.912 236.73 163.37 236.631 162.792 236.631H162.788C162.55 236.652 162.324 236.644 162.084 236.637C161.956 236.633 161.824 236.631 161.686 236.631H161.608L161.582 236.704C161.569 236.741 161.545 236.784 161.521 236.83C161.48 236.906 161.434 236.99 161.406 237.1C161.309 237.458 161.207 237.826 161.075 238.226C160.9 238.813 160.783 239.465 160.7 240.331C160.664 240.582 160.638 240.833 160.612 241.091C160.586 241.316 160.562 241.546 160.532 241.784C160.48 242.141 160.421 242.501 160.361 242.86C160.302 243.209 160.244 243.557 160.192 243.91C160.176 244.053 160.148 244.187 160.12 244.317C160.099 244.43 160.075 244.54 160.06 244.653C160.008 245.084 159.951 245.515 159.893 245.945C159.832 246.392 159.774 246.838 159.722 247.281C159.59 248.336 159.453 249.46 159.352 250.59C159.25 251.465 159.148 252.378 159.048 253.283C159.029 253.387 159.02 253.5 159.014 253.613C159.005 253.719 158.996 253.825 158.979 253.929C158.944 254.251 158.921 254.572 158.895 254.894C158.869 255.213 158.843 255.533 158.81 255.858C158.776 256.397 158.743 256.938 158.711 257.478L158.704 257.566L158.791 257.588C158.931 257.625 159.079 257.668 159.206 257.625" fill="black"/>
<path d="M188.228 253.364C188.197 252.723 188.167 252.061 188.167 251.405C188.145 251.004 188.152 250.595 188.161 250.198C188.163 249.995 188.167 249.794 188.167 249.59C188.167 248.373 188.13 247.117 188.098 246.011C188.091 245.71 188.087 245.409 188.083 245.104C188.072 244.35 188.061 243.573 187.963 242.793C187.914 242.464 187.881 242.129 187.849 241.802C187.816 241.464 187.779 241.113 187.73 240.771C187.637 240.098 187.509 239.433 187.385 238.792C187.329 238.493 187.275 238.197 187.221 237.902C187.203 237.781 187.18 237.662 187.154 237.54C187.128 237.426 187.104 237.309 187.089 237.194L187.082 237.168C187.006 236.828 186.946 236.765 186.563 236.8C186.318 236.822 186.075 236.856 185.837 236.891C185.38 236.958 184.947 237.016 184.484 236.999C184.337 236.999 184.192 237.034 184.047 237.103C183.934 237.125 183.852 237.253 183.813 237.333C183.607 237.774 183.419 238.229 183.235 238.669C183.053 239.108 182.864 239.561 182.661 240.007C182.511 240.418 182.379 240.739 182.226 241.048C182.139 241.243 182.061 241.447 181.981 241.654C181.868 241.94 181.756 242.235 181.619 242.527L180.502 244.863C180.424 245.078 180.322 245.314 180.205 245.571L179.595 243.722L178.991 241.715V241.663L178.982 241.622C178.83 241.25 178.664 240.877 178.501 240.518C178.413 240.321 178.326 240.124 178.244 239.94C178.016 239.29 177.683 238.636 177.254 237.993C177.217 237.941 177.183 237.889 177.148 237.837C176.981 237.59 176.808 237.337 176.728 237.053C176.685 236.828 176.535 236.698 176.332 236.698C176.241 236.687 176.148 236.674 176.055 236.661C175.823 236.629 175.585 236.596 175.342 236.596H173.682V236.705C173.682 236.763 173.673 236.822 173.666 236.887C173.658 236.965 173.649 237.047 173.651 237.12C173.614 237.3 173.614 237.512 173.614 237.666C173.58 237.937 173.547 238.207 173.513 238.454C173.495 238.976 173.487 239.509 173.478 240.041C173.472 240.572 173.463 241.102 173.446 241.628C173.446 242.774 173.407 244.008 173.378 245.002C173.378 245.593 173.387 246.175 173.394 246.758C173.402 247.338 173.411 247.921 173.411 248.51C173.411 248.982 173.402 249.462 173.394 249.943C173.387 250.424 173.378 250.904 173.378 251.376C173.378 252.457 173.411 253.518 173.446 254.548V256.168C173.446 256.517 173.476 256.865 173.504 257.236L173.513 257.313C173.513 257.448 173.567 257.517 173.61 257.552C173.656 257.584 173.736 257.617 173.824 257.591C174.238 257.591 174.623 257.56 175.03 257.53L175.104 257.523C175.21 257.523 175.366 257.43 175.381 257.3C175.405 257.233 175.431 257.162 175.455 257.095C175.539 256.863 175.626 256.623 175.652 256.382C175.697 256.042 175.713 255.711 175.728 255.391C175.732 255.226 175.741 255.062 175.752 254.886V254.282C175.786 253.652 175.821 253 175.821 252.355V251.218C175.832 251.062 175.847 250.911 175.864 250.761C175.894 250.486 175.92 250.227 175.92 249.969C175.944 249.716 175.936 249.46 175.929 249.213C175.925 249.092 175.92 248.971 175.92 248.847C175.92 248.694 175.914 248.54 175.905 248.386C175.897 248.237 175.888 248.085 175.888 247.944C175.92 247.468 175.92 246.968 175.92 246.485C175.92 246.085 175.92 245.671 175.888 245.305V242.319C175.853 242.126 175.853 241.966 175.853 241.765V240.516C175.853 240.477 175.858 240.44 175.862 240.405C175.897 240.446 175.925 240.487 175.951 240.526C176.176 241.04 176.377 241.542 176.592 242.107C176.836 242.707 177.07 243.311 177.265 243.856C177.594 244.822 177.925 245.84 178.309 247.059C178.51 247.665 178.681 248.315 178.848 248.945C178.932 249.246 179.028 249.259 179.287 249.259C179.441 249.259 179.595 249.241 179.742 249.224C180 249.192 180.242 249.166 180.483 249.224C180.729 249.274 180.829 249.144 180.905 248.99L181.21 248.284C181.416 247.817 181.632 247.343 181.849 246.868C182.052 246.416 182.26 245.963 182.459 245.515C182.563 245.255 182.656 244.989 182.752 244.723C182.843 244.467 182.934 244.209 183.029 243.969L183.061 243.9C183.25 243.488 183.447 243.064 183.642 242.607C183.707 242.406 183.813 242.198 183.908 242.012C184.226 241.299 184.56 240.643 184.893 240.065C184.906 240.147 184.915 240.223 184.915 240.29C184.932 240.453 184.939 240.606 184.947 240.758C184.956 240.92 184.965 241.078 184.982 241.237C185.03 241.687 185.071 242.139 185.114 242.59C185.155 243.077 185.201 243.562 185.253 244.032C185.328 245.086 185.35 246.009 185.32 246.847C185.287 247.191 185.287 247.57 185.32 247.908C185.337 248.245 185.363 248.577 185.387 248.906C185.413 249.233 185.439 249.562 185.456 249.898C185.473 250.268 185.48 250.638 185.489 251.008C185.497 251.379 185.506 251.751 185.523 252.123C185.554 252.708 185.588 253.368 185.657 253.979L185.66 254.068C185.692 254.884 185.727 255.726 185.792 256.543C185.792 256.746 185.82 256.956 185.85 257.179C185.865 257.294 185.883 257.411 185.894 257.528L185.902 257.604L185.976 257.621C186.114 257.656 186.259 257.692 186.372 257.692C186.664 257.692 186.948 257.684 187.227 257.675C187.496 257.666 187.76 257.658 188.024 257.658C188.31 257.658 188.368 257.489 188.368 257.348V256.499C188.336 255.791 188.301 255.081 188.269 254.341C188.258 254.016 188.243 253.691 188.228 253.364Z" fill="black"/>
<path d="M194.092 250.872C194.092 250.67 194.118 250.497 194.146 250.296L194.159 250.196C194.159 249.802 194.159 249.391 194.194 248.988C194.226 248.28 194.261 247.572 194.295 246.833C194.313 246.626 194.334 246.411 194.358 246.195C194.386 245.95 194.412 245.699 194.43 245.452C194.497 244.69 194.566 243.902 194.666 243.129C194.789 242.185 194.93 241.178 195.103 240.167C195.242 239.476 195.484 238.811 195.792 238.253C195.889 238.123 195.969 238.051 196.121 238.025C196.296 238.004 196.452 237.945 196.604 237.889C196.701 237.852 196.805 237.813 196.907 237.787C197.102 237.757 197.333 237.757 197.602 237.755C197.66 237.77 197.736 237.802 197.807 237.835C197.885 237.867 197.966 237.904 198.026 237.917C198.197 237.984 198.331 238.036 198.468 238.088C198.6 238.138 198.736 238.188 198.901 238.255C199.345 238.445 199.631 238.824 199.94 239.233C200.243 239.602 200.453 240.074 200.555 240.632C200.655 241.26 200.759 241.907 200.826 242.555C200.891 243.029 200.923 243.516 200.954 243.986L200.96 244.064C200.995 244.668 200.995 245.283 200.995 245.879C200.995 246.723 200.995 247.596 200.925 248.477C200.925 248.706 200.893 248.936 200.858 249.178C200.832 249.354 200.808 249.531 200.793 249.715L200.659 251.103C200.572 252.101 200.486 253.132 200.187 254.111C200.079 254.449 199.942 254.674 199.743 254.845C199.191 255.395 198.541 255.761 197.81 255.927C197.234 256.042 196.77 256.044 196.339 255.927L196.177 255.925C195.815 255.925 195.517 255.795 195.203 255.657C195.068 255.6 194.936 255.542 194.798 255.494C194.43 255.351 194.226 255.079 194.159 254.643C194.124 254.113 194.092 253.591 194.092 253.065V250.872ZM192.706 257.504C193.189 257.85 193.715 258.06 194.272 258.129C194.646 258.192 195.01 258.216 195.398 258.242C195.638 258.257 195.883 258.272 196.142 258.301C196.222 258.301 196.305 258.309 196.387 258.316C196.474 258.324 196.56 258.333 196.656 258.333H196.658C196.928 258.316 197.19 258.292 197.452 258.266C197.712 258.24 197.972 258.216 198.234 258.199C198.728 258.199 199.202 258.129 199.646 257.991C200.061 257.87 200.38 257.722 200.631 257.534C201.083 257.177 201.447 256.672 201.711 256.04C201.995 255.321 202.166 254.544 202.328 253.79L202.424 253.357C202.575 252.671 202.614 251.939 202.651 251.231C202.664 250.989 202.677 250.748 202.694 250.508C202.707 250.272 202.705 250.034 202.701 249.804C202.697 249.505 202.69 249.196 202.725 248.908C202.742 248.836 202.753 248.765 202.762 248.693C202.77 248.628 202.777 248.566 202.796 248.477C202.796 247.801 202.826 247.13 202.859 246.418L202.863 242.637C202.846 242.299 202.82 241.959 202.796 241.622C202.77 241.284 202.744 240.948 202.727 240.611C202.697 239.931 202.556 239.233 202.287 238.43C202.248 238.281 202.173 238.168 202.105 238.066C202.002 237.882 201.876 237.698 201.766 237.534L201.664 237.384C201.436 237.057 201.135 236.802 200.75 236.611C200.098 236.237 199.401 236.064 198.665 235.882L198.433 235.825C198.05 235.715 197.684 235.754 197.327 235.791C197.223 235.802 197.119 235.812 197.021 235.821C196.935 235.821 196.842 235.821 196.775 235.886C196.671 235.99 196.536 235.99 196.365 235.99C196.225 236.012 196.08 236.025 195.93 236.038C195.573 236.074 195.203 236.109 194.869 236.228C194.596 236.295 194.295 236.401 194.092 236.687C194.025 236.813 193.953 236.934 193.882 237.051C193.709 237.35 193.542 237.631 193.444 237.947C193.048 238.98 192.821 239.835 192.732 240.632C192.628 241.247 192.561 241.864 192.494 242.501C192.459 243.105 192.392 243.72 192.325 244.32L192.225 245.636C192.191 246.143 192.15 246.649 192.106 247.156C192.063 247.663 192.022 248.167 191.987 248.676C191.972 249.2 191.963 249.722 191.955 250.246C191.946 250.768 191.937 251.289 191.92 251.818C191.92 252.532 191.888 253.262 191.853 254.076C191.853 255.094 191.948 255.873 192.16 256.603C192.267 256.956 192.373 257.244 192.706 257.504" fill="black"/>
<path d="M208.93 241.669C208.976 240.902 208.991 240.125 209.006 239.371C209.012 239.023 209.019 238.674 209.03 238.328C209.054 238.326 209.073 238.323 209.097 238.323C209.181 238.315 209.261 238.31 209.346 238.33C209.523 238.356 209.701 238.362 209.876 238.369C210.175 238.38 210.459 238.391 210.742 238.49C211.169 238.646 211.496 238.917 211.728 239.315C211.897 239.657 212.009 240.023 212.087 240.5C212.111 240.645 212.135 240.79 212.161 240.933C212.243 241.418 212.323 241.877 212.323 242.338C212.323 243.072 212.141 243.689 211.734 244.334C211.678 244.421 211.563 244.501 211.455 244.527C211.015 244.663 210.584 244.793 210.149 244.895C209.937 244.927 209.716 244.945 209.506 244.962C209.326 244.975 209.142 244.988 208.958 245.012C208.902 243.951 208.893 242.914 208.93 241.669ZM206.505 255.886C206.531 256.401 206.555 256.916 206.59 257.414C206.59 257.555 206.59 257.73 206.626 257.908L206.641 257.995H206.73C206.745 257.995 206.763 257.999 206.78 258.001C206.826 258.012 206.893 258.021 206.955 257.995C207.018 257.995 207.083 257.986 207.148 257.977C207.211 257.969 207.274 257.96 207.356 257.96C207.72 257.895 208.06 257.863 208.393 257.828C208.789 257.789 208.895 257.67 208.895 257.289C208.93 256.916 208.93 256.566 208.895 256.193C208.828 255.427 208.898 254.641 208.965 253.874V249.643C208.93 249.215 208.895 248.773 208.895 248.29C208.876 248.164 208.882 248.019 208.889 247.879C208.891 247.838 208.893 247.794 208.893 247.753C209.638 247.576 210.4 247.511 211.217 247.539C211.773 247.539 212.148 247.814 212.47 248.461C212.728 248.935 212.845 249.509 212.897 249.907C213.055 250.945 213.161 251.993 213.232 253.207C213.295 254.024 213.306 254.877 213.267 255.897V256.176C213.271 256.726 213.276 257.295 213.133 257.886C213.133 257.958 213.142 258.031 213.15 258.103C213.159 258.166 213.168 258.228 213.168 258.293V258.402H213.276C213.306 258.402 213.332 258.404 213.358 258.408C213.384 258.413 213.412 258.417 213.442 258.417C213.473 258.417 213.501 258.413 213.536 258.4C214.293 258.363 214.928 258.33 215.601 258.265C215.774 258.265 215.98 258.2 215.98 257.897C216.047 257.165 216.114 256.41 216.149 255.704C216.184 255.295 216.184 254.916 216.184 254.522C216.216 254.255 216.251 253.98 216.251 253.677L216.257 253.601C216.285 253.194 216.316 252.772 216.316 252.393C216.346 251.285 216.314 249.985 215.837 248.743C215.805 248.654 215.774 248.567 215.742 248.481C215.58 248.03 215.428 247.604 215.077 247.225C214.939 247.065 214.791 246.924 214.633 246.774C214.558 246.701 214.48 246.625 214.397 246.545C214.146 246.268 213.832 245.965 213.397 245.772C213.46 245.705 213.516 245.64 213.557 245.581L213.839 245.265C214.014 245.066 214.192 244.867 214.378 244.657C214.449 244.549 214.521 244.403 214.562 244.284C214.659 243.851 214.763 243.405 214.83 243.005C214.876 242.816 214.9 242.66 214.9 242.539C214.9 242.093 214.9 241.632 214.932 241.162C214.965 240.43 214.85 239.646 214.592 238.83C214.432 238.31 214.109 237.845 213.863 237.544C213.429 237.039 212.86 236.7 212.221 236.565C211.539 236.401 210.764 236.212 210.002 236.36C209.93 236.36 209.857 236.368 209.785 236.377C209.723 236.386 209.66 236.392 209.575 236.394C208.947 236.461 208.296 236.529 207.709 236.63C207.594 236.63 207.427 236.665 207.313 236.78C207.222 236.868 207.129 236.959 207.042 237.018L206.99 237.052L206.992 237.115C207.023 237.57 207.062 238.139 207.027 238.655C206.992 239.497 206.923 240.354 206.858 241.186L206.854 241.277C206.819 241.926 206.787 242.595 206.722 243.241C206.68 243.773 206.637 244.293 206.596 244.817L206.522 245.739C206.505 246.229 206.479 246.72 206.453 247.21C206.429 247.697 206.403 248.186 206.386 248.678C206.386 249.219 206.379 249.758 206.375 250.297C206.36 251.627 206.349 252.999 206.421 254.353C206.453 254.857 206.479 255.373 206.505 255.886" fill="black"/>
<path d="M234.06 244.895C233.902 244.921 233.744 244.944 233.597 244.962C233.436 244.975 233.272 244.977 233.105 244.981C232.85 244.983 232.588 244.988 232.339 245.029C232.12 245.064 231.895 245.107 231.667 245.148C231.438 245.191 231.21 245.232 230.99 245.267L230.957 245.276C230.948 245.284 230.925 245.282 230.886 245.276C230.873 245.274 230.86 245.271 230.847 245.269V245.254C230.914 244.747 230.981 244.239 231.046 243.734C231.078 243.513 231.111 243.32 231.141 243.132L231.148 243.095C231.215 242.632 231.284 242.151 231.317 241.71C231.384 241.151 231.451 240.571 231.488 239.995C231.501 239.947 231.518 239.891 231.533 239.837C231.544 239.802 231.555 239.767 231.566 239.733C232.139 239.624 232.806 239.518 233.473 239.512C233.83 240.276 234.411 243.476 234.439 244.838C234.315 244.853 234.188 244.875 234.06 244.895ZM236.18 257.659H237.215C237.384 257.659 237.563 257.65 237.741 257.641C237.916 257.633 238.092 257.624 238.273 257.624C238.583 257.581 238.637 257.444 238.637 257.172C238.62 256.936 238.596 256.691 238.57 256.446C238.544 256.201 238.52 255.957 238.503 255.716C238.486 255.565 238.468 255.405 238.451 255.244C238.436 255.086 238.419 254.924 238.399 254.766C238.273 254.043 238.176 253.335 238.083 252.65L238.066 252.51C237.942 251.687 237.847 250.834 237.756 250.011L237.726 249.747C237.695 249.446 237.654 249.143 237.615 248.84C237.57 248.495 237.526 248.147 237.49 247.787C237.455 247.491 237.412 247.185 237.366 246.878C237.327 246.594 237.286 246.311 237.256 246.036C237.228 245.785 237.187 245.531 237.148 245.282C237.091 244.925 237.037 244.585 237.018 244.26C237.018 243.818 236.948 243.407 236.881 243.011C236.84 242.786 236.805 242.573 236.782 242.355C236.712 241.881 236.606 241.422 236.504 240.976C236.459 240.781 236.416 240.588 236.375 240.391C236.273 239.915 236.162 239.427 236.052 238.942C235.944 238.466 235.835 237.992 235.734 237.526C235.693 237.314 235.593 237.215 235.359 237.169C235.017 237.169 234.653 237.134 234.331 237.069C234.129 237.035 233.928 236.994 233.729 236.953C233.525 236.909 233.319 236.866 233.116 236.831L233.088 236.827C232.564 236.73 232.022 236.63 231.44 236.63H231.436C231.2 236.652 230.97 236.643 230.734 236.639C230.604 236.634 230.472 236.63 230.331 236.63H230.253L230.227 236.704C230.219 236.74 230.195 236.781 230.169 236.827C230.13 236.905 230.08 236.992 230.061 237.08C229.965 237.422 229.862 237.81 229.723 238.224C229.545 238.812 229.428 239.464 229.346 240.332C229.314 240.575 229.288 240.82 229.262 241.066C229.236 241.3 229.214 241.539 229.179 241.783C229.13 242.136 229.069 242.489 229.011 242.842C228.952 243.197 228.892 243.552 228.842 243.909C228.824 244.052 228.794 244.187 228.77 244.317C228.746 244.429 228.723 244.54 228.705 244.652C228.655 245.105 228.595 245.555 228.534 246.005C228.478 246.43 228.419 246.856 228.37 247.283C228.24 248.333 228.101 249.455 227.997 250.589C227.921 251.241 227.848 251.91 227.774 252.586L227.698 253.283C227.679 253.387 227.67 253.499 227.662 253.612C227.653 253.72 227.644 253.826 227.627 253.93C227.595 254.251 227.569 254.573 227.543 254.894C227.519 255.214 227.493 255.532 227.458 255.857L227.35 257.568L227.439 257.587C227.579 257.622 227.733 257.657 227.857 257.624C228.337 257.594 228.814 257.537 229.32 257.477L229.504 257.455C229.799 257.412 229.866 257.33 229.866 257.018C229.877 256.769 229.885 256.522 229.894 256.273C229.909 255.788 229.924 255.286 229.968 254.792C229.985 254.539 230.011 254.285 230.037 254.034C230.061 253.781 230.087 253.527 230.104 253.283C230.121 253.157 230.143 253.029 230.167 252.902C230.23 252.536 230.297 252.159 230.273 251.782C230.273 251.39 230.305 250.992 230.334 250.609C230.349 250.438 230.362 250.267 230.373 250.102C230.407 249.641 230.44 249.164 230.507 248.721L230.513 248.621C230.546 248.199 230.576 247.764 230.632 247.326C231.267 247.255 231.914 247.229 232.54 247.203C233.252 247.172 233.986 247.144 234.722 247.049C235.104 251.102 235.563 254.45 236.165 257.57L236.18 257.659Z" fill="black"/>
<path d="M106.13 309.45C106.083 309.112 105.983 308.686 105.632 308.393C105.236 308.064 104.755 308.088 104.457 308.133C104.086 308.175 103.736 308.235 103.387 308.296C103.071 308.352 102.757 308.408 102.419 308.445C102.066 308.488 101.718 308.54 101.373 308.592C100.449 308.729 99.5783 308.861 98.8637 308.794C98.5476 308.69 98.2748 308.716 98.0539 308.737C97.9825 308.744 97.9089 308.753 97.8266 308.753L97.7443 308.757C97.1987 308.811 96.653 308.865 96.0533 308.922L95.8237 305.762C95.7458 304.53 95.7458 303.374 95.7458 302.142C95.7458 301.674 95.7653 301.207 95.7869 300.75C95.8043 300.289 95.8237 299.838 95.8237 299.407C95.8237 298.647 95.8043 297.89 95.7848 297.138C95.7653 296.448 95.748 295.766 95.7458 295.099C97.0904 295.025 98.409 294.941 99.7212 294.856C101.185 294.761 102.642 294.668 104.117 294.592L104.887 294.553L104.881 292.866C104.963 292.208 104.965 291.47 104.95 290.972C104.998 290.738 105.02 290.506 105.043 290.262C105.061 290.084 105.078 289.898 105.123 289.562C105.121 289.025 104.831 288.146 103.534 288.127C103.116 288.166 102.681 288.185 102.244 288.202C101.782 288.224 101.319 288.244 100.951 288.28C100.492 288.28 100.1 288.343 99.6237 288.436C99.2968 288.436 98.8876 288.499 98.6061 288.594H95.8541C95.8237 287.906 95.8237 287.271 95.8237 286.594L95.8302 277.954C95.8432 276.036 95.8562 274.053 95.6635 272.119C95.6007 271.599 95.6419 271.461 95.6051 271.467C95.6462 271.441 95.8086 271.372 96.4755 271.296C97.8894 271.06 99.4354 270.9 100.799 270.757L103.998 270.761C104.461 270.761 104.868 270.577 105.121 270.257C105.349 269.962 105.427 269.579 105.357 269.402C105.357 268.958 105.338 268.535 105.318 268.113C105.299 267.715 105.279 267.319 105.279 266.901C105.279 266.165 104.894 265.664 104.145 265.478C103.307 265.327 102.393 265.097 101.557 264.868L101.343 264.839C101.122 264.839 100.884 264.859 100.644 264.883C100.204 264.92 99.8121 264.922 99.4549 264.963C99.3076 264.978 99.1604 264.995 99.0261 264.997L98.8118 264.989C96.77 264.913 94.7953 264.839 92.5932 264.816C92.0129 264.701 91.2248 264.738 90.7138 264.839C90.2223 264.839 89.8802 265.182 89.7524 265.309L89.4363 265.955C89.2891 266.346 89.1223 266.792 89.1245 267.23C88.9708 269.224 88.8928 271.292 88.8105 273.431C88.7586 274.698 88.7737 276.001 88.7932 277.294C88.8019 277.924 88.8084 278.55 88.8084 279.169V282.662C88.7304 285.325 88.7304 287.992 88.7304 290.578V295.343C88.7304 295.967 88.7218 296.584 88.7153 297.195C88.6958 298.435 88.6785 299.663 88.7304 300.891C88.7304 303.088 88.7304 305.286 88.8084 307.456C88.8084 307.735 88.8019 308.016 88.7932 308.294C88.7737 308.896 88.7586 309.485 88.8105 310.004L89.053 313.988C89.1678 314.902 89.4406 315.37 90.7181 315.37H90.7506C91.2638 315.296 91.8484 315.222 92.4849 315.22C93.0761 315.181 93.652 315.181 94.2236 315.181C94.9187 315.203 95.499 315.183 96.1745 315.14C96.3975 315.123 96.6271 315.112 96.8566 315.103C97.5711 315.075 98.3744 315.043 98.9742 314.796C99.457 314.989 99.9312 314.965 100.291 314.95C100.501 314.939 100.698 314.93 101.029 314.986L101.962 314.984C102.82 314.906 103.755 314.826 104.725 314.746C105.756 314.616 106.139 314.187 106.132 313.25C106.191 312.732 106.174 312.215 106.154 311.726C106.148 311.52 106.139 311.321 106.139 311.128L106.13 309.45Z" fill="black"/>
<path d="M140.201 310.135L140.101 309.525L139.484 309.46C137.986 309.302 136.487 309.146 135.024 309.066C133.787 309.066 132.551 309.12 131.248 309.185C131.17 308.657 131.116 308.124 131.061 307.574C130.988 307.063 130.992 306.478 130.986 305.803L130.944 305.419C130.804 304.168 130.669 302.968 130.6 301.749V296.75C130.6 296.014 130.598 295.273 130.52 294.68C130.397 292.084 130.472 289.481 130.548 286.967L130.596 285.11C130.678 284.302 130.756 283.492 130.756 282.687V278.514C130.717 277.434 130.737 276.371 130.756 275.316C130.776 274.24 130.795 273.175 130.754 272.066C130.605 270.358 130.527 268.652 130.453 267.01L130.444 266.824C130.444 266.389 130.444 265.237 129.119 265.237H129.106C128.762 265.194 128.415 265.192 128.069 265.192C127.801 265.192 127.523 265.194 127.253 265.161C126.952 265.109 126.644 265.094 126.33 265.083C125.778 265.062 125.3 265.044 124.849 264.741L123.964 264.15L123.626 265.161C123.561 265.354 123.5 265.551 123.435 265.681L123.351 266.59C123.351 267.625 123.312 268.68 123.275 269.743C123.234 270.847 123.195 271.962 123.195 273.075C123.195 275.271 123.273 277.549 123.351 279.796C123.351 281.814 123.427 283.802 123.587 285.841C123.663 287.885 123.821 289.927 123.975 291.934L124.444 305.212C124.483 306.567 124.503 307.92 124.522 309.276C124.542 310.655 124.561 312.034 124.6 313.392V316.317L125.049 316.542C125.347 316.692 125.627 316.705 125.863 316.705H125.932L129.554 316.471H134.398C135.29 316.471 136.115 316.404 137.133 316.315C137.332 316.315 137.522 316.324 137.711 316.332C138.144 316.352 138.568 316.367 138.93 316.315C139.304 316.315 140.446 316.315 140.446 314.879C140.446 313.764 140.443 312.651 140.368 311.597C140.368 311.144 140.305 310.755 140.201 310.135Z" fill="black"/>
<path d="M173.882 310.135L173.78 309.524L173.165 309.459C171.669 309.303 170.168 309.147 168.705 309.067C167.468 309.067 166.234 309.121 164.929 309.186C164.851 308.658 164.799 308.125 164.742 307.575C164.669 307.064 164.673 306.48 164.667 305.804L164.625 305.421C164.485 304.169 164.35 302.97 164.281 301.751V296.749C164.281 296.013 164.279 295.275 164.201 294.681C164.08 292.085 164.156 289.483 164.229 286.967L164.277 285.111C164.359 284.303 164.439 283.494 164.439 282.686V278.516C164.398 277.433 164.42 276.37 164.439 275.318C164.456 274.242 164.476 273.174 164.435 272.065C164.285 270.359 164.207 268.651 164.134 267.01L164.125 266.823C164.125 266.388 164.125 265.238 162.8 265.238H162.789C162.443 265.195 162.099 265.193 161.75 265.193C161.486 265.191 161.206 265.195 160.934 265.16C160.635 265.111 160.325 265.096 160.013 265.083C159.459 265.063 158.981 265.044 158.53 264.743L157.645 264.151L157.309 265.16C157.242 265.355 157.181 265.55 157.118 265.68L157.032 266.592C157.032 267.627 156.993 268.679 156.956 269.744C156.915 270.846 156.876 271.962 156.876 273.077C156.876 275.272 156.954 277.548 157.032 279.795C157.032 281.813 157.11 283.801 157.268 285.843C157.344 287.885 157.504 289.926 157.658 291.934L158.127 305.213C158.164 306.566 158.184 307.922 158.203 309.275C158.223 310.654 158.242 312.036 158.281 313.393V316.319L158.732 316.542C159.03 316.691 159.308 316.706 159.546 316.706H159.613L163.235 316.472H168.079C168.971 316.472 169.796 316.403 170.814 316.314C171.015 316.314 171.206 316.323 171.394 316.332C171.827 316.351 172.249 316.366 172.611 316.314C172.988 316.314 174.129 316.314 174.129 314.879C174.129 313.766 174.126 312.653 174.049 311.598C174.049 311.139 173.988 310.747 173.882 310.135Z" fill="black"/>
<path d="M216.021 266.469L216.086 267.277H216.084L215.761 266.482C214.768 266.56 213.774 266.56 212.62 266.575C212.07 266.685 211.147 267.114 210.846 267.868C210.389 269.082 209.92 270.338 209.374 271.507C208.506 273.558 207.564 275.517 206.652 277.414C206.224 278.315 205.812 279.196 205.401 280.077C204.992 280.954 204.582 281.831 204.16 282.712C204.011 283.011 203.85 283.297 203.686 283.581C203.61 283.379 203.534 283.178 203.467 282.979L201.735 277.696C201.596 277.263 201.443 276.797 201.265 276.444L200.328 274.101C200.007 273.3 199.685 272.499 199.323 271.789C199.085 271.113 198.805 270.455 198.528 269.799C198.26 269.167 197.991 268.535 197.792 267.993C197.569 266.874 196.668 266.869 196.211 266.887C195.995 266.93 195.551 267.019 195.194 266.954C194.226 266.865 193.247 267.099 192.318 267.35C191.903 267.406 191.617 267.692 191.42 267.889C191.24 268.069 191.132 268.273 191.045 268.433C191.011 268.5 190.974 268.569 190.926 268.638L190.675 269.017L192.26 272.451C192.884 273.932 193.507 275.411 194.129 276.959L195.293 279.995C195.861 281.558 196.43 283.187 197 284.819L199.698 291.512C199.693 291.586 199.687 291.657 199.667 291.711C199.507 292.166 199.329 292.621 199.152 293.08C198.899 293.731 198.643 294.396 198.427 295.041C197.803 296.609 197.175 298.255 196.556 299.881C196.101 300.987 195.464 302.111 194.852 303.198L194.588 303.668C193.86 304.839 193.286 306.054 192.732 307.227C192.485 307.753 192.236 308.284 192.004 308.75C191.524 309.531 191.216 310.384 190.917 311.211C190.798 311.549 190.673 311.891 190.614 312.084C190.441 312.346 190.242 312.645 190.112 313.041C190.03 313.366 189.861 314.037 190.199 314.587L190.322 314.862L190.629 315.011C191.047 315.211 191.457 315.061 191.721 314.962L192.264 314.823C193.256 314.563 194.196 314.316 195.276 314.44C196.064 314.44 196.606 314.085 196.904 313.338C197.056 312.885 197.207 312.433 197.331 312.114C197.688 311.398 198.048 310.698 198.407 310.001C198.751 309.332 199.096 308.663 199.442 307.974C199.795 307.264 200.131 306.532 200.466 305.803C200.795 305.088 201.122 304.374 201.471 303.679L201.477 303.663C202.04 302.481 202.644 301.34 203.287 300.121C204.071 301.901 204.864 303.683 205.717 305.461C206.535 307.173 207.356 308.817 208.174 310.456L208.296 310.698C208.763 311.675 209.233 312.636 209.705 313.595C210.173 314.55 210.641 315.505 211.132 316.525C211.563 317.3 211.838 317.588 212.589 317.588C212.732 317.588 212.895 317.577 213.079 317.558C214.241 317.48 215.402 317.4 216.372 317.255C216.599 317.255 217.284 317.255 217.65 316.698C217.89 316.332 217.896 315.875 217.691 315.401C217.5 314.834 217.236 314.338 216.976 313.857L216.725 313.379C216.082 311.915 215.396 310.497 214.696 309.057L214.001 307.624C213.681 306.82 213.36 306.021 212.97 305.24C212.728 304.72 212.468 304.22 212.208 303.72C211.961 303.243 211.712 302.767 211.485 302.278C211.284 301.827 211.087 301.368 210.89 300.907C210.4 299.77 209.898 298.595 209.285 297.482C208.792 296.496 208.378 295.472 207.956 294.435L207.449 293.194C207.09 292.192 207.105 291.724 207.505 291.12C207.821 290.67 208.036 290.2 208.239 289.745C208.415 289.36 208.586 288.972 208.837 288.617C210.405 286.335 211.738 283.641 212.908 280.413C213.191 279.709 213.471 279.006 213.748 278.3C214.3 276.903 214.854 275.504 215.478 274.097L215.8 273.352C216.415 271.945 217.052 270.488 217.331 269.139C217.416 268.976 217.496 268.814 217.578 268.589C217.756 268.296 217.849 268.015 217.925 267.783L218.1 267.259L217.675 266.904C217.052 266.384 216.409 266.439 216.021 266.469Z" fill="black"/>
<path d="M257.485 298.109C256.783 295.383 255.434 292.878 253.468 290.656C252.475 289.567 251.797 288.712 251.251 287.872C251.007 287.378 250.612 286.859 250.084 286.33L249.658 285.915C249.251 285.523 248.833 285.118 248.521 284.704C247.267 283.007 246.109 281.101 245.08 279.042C244.385 277.654 244.082 276.329 244.147 275.019L244.18 274.545C244.231 273.822 244.279 273.138 244.565 272.501C244.805 271.867 245.089 271.728 245.342 271.674C246.663 271.323 248.064 271.399 249.443 271.901C249.603 271.949 249.785 272.033 249.933 272.523C250.58 274.11 250.476 275.738 250.264 277.293C250.182 278.105 250.474 278.579 250.732 278.834C250.978 279.079 251.422 279.36 252.18 279.272C252.516 279.235 252.834 279.215 253.152 279.198C253.497 279.176 253.843 279.157 254.118 279.12C254.921 279.12 256.008 278.943 256.177 277.403C256.34 276.409 256.34 275.428 256.34 274.482C256.34 272.845 256.34 271.152 255.839 269.58C255.599 268.69 255.224 267.681 254.283 266.947C252.962 265.994 251.416 265.286 249.385 264.706C248.068 264.392 246.722 264.362 245.42 264.331C244.998 264.323 244.576 264.312 244.117 264.293C243.482 264.293 242.549 264.357 241.793 264.899C241.653 264.992 241.486 265.13 241.324 265.269C241.213 265.364 241.107 265.46 241.001 265.531C239.884 266.304 239.009 267.265 238.403 268.389C237.353 270.316 236.744 272.237 236.59 274.112C236.421 276.53 236.842 278.847 237.822 280.969C238.446 282.45 239.089 283.983 239.988 285.451C240.942 287.021 242.01 288.582 243.041 290.091L243.528 290.802C243.965 291.44 244.422 292.057 244.881 292.674C245.321 293.27 245.762 293.863 246.176 294.465L246.36 294.721C246.438 294.825 246.52 294.926 246.631 295.145C247.258 296.169 247.891 297.191 248.504 298.111C249.463 299.681 250.039 300.959 250.366 302.273C250.641 303.301 250.851 304.304 250.409 305.244C250.119 305.889 249.777 306.439 249.43 307.006L249.144 307.474C248.999 307.693 248.917 307.773 248.95 307.773H248.952C248.148 307.991 247.326 308.217 246.561 308.286C245.561 308.349 244.699 307.97 243.872 307.558C243.383 307.366 243.151 307.073 243.03 306.476C242.883 305.885 242.811 305.367 242.742 304.878C242.742 304.583 242.735 304.289 242.727 303.992C242.709 303.453 242.69 302.912 242.742 302.299C242.742 302.128 242.716 301.946 242.681 301.758C242.642 301.541 242.621 301.405 242.655 301.333C242.831 300.987 242.837 300.612 242.677 300.283C242.493 299.909 242.118 299.647 241.462 299.532C241.018 299.532 240.574 299.538 240.291 299.61H237.946C237.781 299.61 237.634 299.592 237.489 299.577C237.283 299.553 237.08 299.532 236.852 299.532C236.478 299.532 235.337 299.532 235.337 300.969C235.337 301.94 235.406 302.842 235.48 303.804L235.497 304.035C235.575 305.287 235.664 306.705 236.205 308.13L236.32 308.394C236.415 308.619 236.532 308.903 236.692 309.106C237.013 309.669 237.42 310.25 237.885 310.806L238.251 311.228C238.74 311.794 239.245 312.376 239.838 312.835C241.458 314.236 243.617 314.963 246.418 315.065C246.644 315.076 246.867 315.083 247.083 315.083C248.612 315.083 249.872 314.764 250.983 314.11C252.327 313.4 253.717 312.549 254.757 311.161C255.686 309.979 256.433 308.63 256.915 307.255C258.015 304.129 258.204 301.143 257.485 298.109Z" fill="black"/>
<path d="M130.582 163.976C130.571 163.852 130.571 163.742 130.56 163.618C130.354 166 128.648 167.602 127.388 167.856C127.065 167.921 126.756 167.951 126.457 167.951C124.257 167.951 122.726 166.379 122.027 164.909C120.758 162.246 120.035 158.623 119.875 154.143C119.719 149.733 119.913 145.27 120.104 140.957C120.175 139.288 120.227 137.616 120.282 135.947C119.816 136.148 119.316 136.284 118.777 136.284C118.482 136.284 118.19 136.237 117.9 136.163C117.668 136.252 117.428 136.31 117.166 136.31H117.164C115.035 136.25 114.117 134.152 113.717 132.53C113.169 135.156 111.502 136.808 108.862 137.285L108.717 137.311L108.57 137.309C104.915 137.213 104.283 134.15 103.982 132.679L103.897 132.285C103.564 130.817 103.287 129.161 103.068 127.368C102.86 125.651 102.678 123.93 102.488 122.13L102.403 121.349C101.955 121.463 101.609 121.552 101.26 121.634C99.7854 121.981 98.6703 122.15 97.7523 122.169C97.6873 122.171 97.6137 122.18 97.5509 122.18C96.0829 122.18 95.0089 121.732 94.3593 120.851C93.2313 119.315 93.7639 116.91 94.5044 114.539C95.0847 112.688 96.2842 109.589 97.7523 106.463C98.0749 105.783 98.4083 105.101 98.7526 104.427C97.7285 105.131 95.3943 105.101 94.8747 102.405C92.9476 84.8644 93.7812 77.6931 95.1713 75.582C96.6718 72.8018 99.2853 73.0811 99.2853 73.0811L104.61 73.1418C103.579 71.8166 102.741 70.1667 102.412 68.3328C101.946 65.7215 102.602 63.2488 104.309 61.1875C106.175 58.9356 109.488 57.5347 112.959 57.5347C114.574 57.5347 116.081 57.8487 117.406 58.4311C116.689 57.0302 116.319 55.4236 116.43 53.8322C116.579 51.6669 117.577 49.8416 119.242 48.694C120.832 47.5963 122.774 46.9922 124.705 46.9922C126.53 46.9922 128.226 47.5421 129.614 48.5014C130.673 48.0012 131.597 48.0856 131.597 48.0856L136.921 48.1462C135.889 46.8211 135.051 45.1712 134.724 43.3373C134.256 40.726 134.912 38.2554 136.62 36.192C136.815 35.956 137.034 35.7373 137.259 35.5207C127.349 33.7258 117.376 34.9708 108.624 38.8249C83.6761 49.7853 65.7219 82.6428 85.2892 128.706C94.4893 150.38 111.521 170.374 128.057 186.208C128.252 185.734 128.466 185.247 128.72 184.734C130.506 181.116 133.273 176.116 135.129 172.918C135.077 172.907 135.027 172.894 134.975 172.881C130.809 171.812 130.584 165.275 130.582 163.976Z" fill="#E21F23"/>
<path d="M241.45 38.825C232.019 34.7197 221.166 33.5981 210.503 36.0405C211.776 37.4718 212.596 39.152 212.837 41.0422C213.12 43.2789 212.616 45.6607 211.457 47.7631C211.81 47.7826 212.146 47.7935 212.479 47.7956C215.188 47.8151 217.184 48.2633 218.655 49.1944C218.843 49.0255 219.012 48.8393 219.222 48.6942C220.813 47.5964 222.753 46.9923 224.687 46.9923C226.848 46.9923 228.857 47.722 230.347 49.0471C232.233 50.7252 233.073 52.9965 232.707 55.4433C232.571 56.357 232.257 57.2491 231.83 58.0718C232.991 57.7254 234.231 57.5349 235.496 57.5349C237.728 57.5349 239.764 58.113 241.381 59.2086C243.893 60.9083 245.406 63.2706 245.757 66.0378C246.041 68.2766 245.536 70.6562 244.382 72.7587C244.731 72.7782 245.066 72.789 245.4 72.7911C251.96 72.8388 254.522 75.2205 254.847 81.5777L254.931 83.1388C255.189 87.9933 255.41 92.1895 254.966 97.2865C254.964 98.2977 254.788 103.379 251.551 104.211L251.43 104.239C252.874 106.725 255.026 110.611 256.414 113.424C257.817 116.265 258.043 118.35 257.09 119.621C256.193 120.818 255.132 121.375 253.764 121.375C253.143 121.375 252.528 121.264 251.878 121.145C251.261 121.031 250.624 120.916 249.895 120.872C249.516 120.851 249.187 120.838 248.903 120.838C248.635 120.838 248.453 120.849 248.334 120.864C248.314 121.104 248.312 121.472 248.312 121.784C248.308 122.332 248.305 122.99 248.251 123.77C248.037 126.859 247.4 129.384 246.058 132.485C245.488 133.799 243.763 136.285 241.314 136.285C240.831 136.285 240.35 136.187 239.889 135.994C237.579 135.029 237.274 132.879 237.126 131.842C236.931 130.462 236.823 129.005 236.734 127.561C236.691 129.217 236.592 130.872 236.293 132.415C235.773 135.115 234.082 136.8 231.399 137.285L231.254 137.311L231.109 137.307C229.65 137.27 228.684 136.752 228.019 136.059C228.026 143.655 227.744 149.867 226.623 161.637C226.616 161.7 225.936 167.867 222.366 168.696L222.245 168.724C222.245 168.724 221.855 168.742 221.727 168.742C220.803 168.742 219.796 168.527 218.889 167.925C218.46 170.045 217.312 173.308 214.307 173.395H214.305C212.375 173.395 211.083 171.537 210.39 167.878C210.312 167.862 210.241 167.834 210.163 167.815C210.173 168.547 210.18 169.281 210.193 170.01C210.254 173.131 210.39 176.251 210.526 179.371C210.769 184.92 211.02 190.662 210.821 196.335C210.819 196.346 210.819 196.353 210.819 196.364C230.327 179.405 253.474 155.295 264.787 128.706C284.352 82.5997 266.398 49.7205 241.45 38.825Z" fill="#E21F23"/>
<path d="M182.507 205.975C182.07 201.389 181.737 197.47 181.477 193.947C181.401 194.168 181.323 194.384 181.18 194.579C180.344 195.716 178.963 196.29 177.075 196.29C175.852 196.29 172.71 195.774 170.674 195.296C170.228 195.192 169.782 195.077 169.204 194.928L169.098 195.934C168.853 198.249 168.62 200.462 168.351 202.673C168.072 204.979 167.712 207.107 167.286 208.997L167.178 209.504C166.84 211.145 166.175 214.319 162.94 215.214C167.058 218.189 170.012 220.168 171.224 220.96C172.359 221.705 173.684 222.099 175.04 222.093C176.404 222.099 177.737 221.696 178.872 220.939C180.119 220.118 183.205 218.044 187.531 214.902C183.341 213.427 182.516 206.053 182.507 205.975Z" fill="#E21F23"/>
<path d="M210.143 166.31H210.145C210.145 166.303 210.143 166.297 210.143 166.29V166.31Z" fill="#E21F23"/>
<path d="M231.145 135.876C228.843 135.815 228.304 134.15 228.007 132.775C227.994 131.621 227.988 129.878 227.981 129.127C228.373 132.154 229.491 135.127 231.257 135.85C231.221 135.858 231.182 135.869 231.145 135.876ZM210.146 166.31H210.144V166.289C210.144 166.297 210.146 166.304 210.146 166.31ZM256.415 113.424C255.025 110.612 252.875 106.725 251.431 104.239L251.552 104.209C254.789 103.38 254.965 98.298 254.967 97.2869C255.411 92.1877 255.188 87.9937 254.93 83.1392L254.848 81.5759C254.523 75.2188 251.961 72.8392 245.401 72.7915C245.067 72.7894 244.73 72.7764 244.381 72.7591C245.535 70.6544 246.042 68.2748 245.758 66.0381C245.407 63.271 243.894 60.9065 241.382 59.209C239.763 58.1134 237.729 57.5353 235.497 57.5353C234.233 57.5353 232.992 57.7258 231.829 58.0701C232.258 57.2494 232.572 56.3552 232.708 55.4436C233.074 52.9969 232.234 50.7256 230.348 49.0475C228.856 47.7224 226.849 46.9927 224.688 46.9927C222.755 46.9927 220.815 47.5968 219.223 48.6946C219.011 48.8397 218.842 49.0259 218.654 49.1926C217.186 48.2637 215.189 47.8155 212.481 47.796C212.147 47.7939 211.809 47.7809 211.459 47.7635C212.615 45.6589 213.121 43.2793 212.838 41.0426C212.597 39.1524 211.777 37.4722 210.504 36.0409C209.913 35.3762 209.256 34.7504 208.46 34.2135C206.842 33.1179 204.809 32.5397 202.577 32.5397C199.106 32.5397 195.793 33.9385 193.927 36.1925C192.218 38.2538 191.564 40.7244 192.032 43.3356C192.082 43.6214 192.164 43.8921 192.238 44.1671C192.645 45.6654 193.355 47.0252 194.228 48.1468L188.903 48.084C188.903 48.084 187.682 47.9779 186.428 48.7834C186.039 49.0345 185.653 49.3701 185.294 49.8335C185.118 50.0608 184.945 50.2969 184.789 50.5848C184.036 51.7302 183.451 54.3805 183.375 59.3411C183.029 59.3259 182.689 59.3216 182.334 59.2978L181.089 59.2934C181.918 58.1892 182.511 56.8316 182.717 55.4436C182.862 54.4628 182.765 53.5274 182.535 52.631C182.191 51.2886 181.487 50.0522 180.357 49.0475C178.865 47.7224 176.858 46.9927 174.697 46.9927C172.764 46.9927 170.823 47.5968 169.232 48.6946C168.102 49.4762 167.307 50.587 166.848 51.8883C166.632 52.5011 166.467 53.1398 166.419 53.8305C166.298 55.6039 166.746 57.4097 167.634 58.908C166.85 58.96 166.09 59.0011 165.33 59.0076C165.131 59.0098 164.943 59.0423 164.75 59.0574C164.733 58.75 164.72 58.4576 164.702 58.1437L164.62 56.5804C164.295 50.2232 161.734 47.8437 155.173 47.796C154.84 47.7939 154.504 47.7809 154.153 47.7635C155.035 46.1634 155.528 44.4031 155.593 42.6709C155.615 42.1231 155.598 41.5796 155.53 41.0426C155.18 38.2733 153.666 35.9132 151.154 34.2135C149.537 33.1179 147.502 32.5397 145.269 32.5397C142.162 32.5397 139.187 33.6678 137.26 35.5213C137.035 35.7356 136.816 35.9565 136.619 36.1925C134.913 38.2538 134.257 40.7244 134.725 43.3356C135.052 45.1718 135.89 46.8195 136.92 48.1468L131.596 48.084C131.596 48.084 130.673 48.0017 129.615 48.4997C128.227 47.5405 126.531 46.9927 124.706 46.9927C122.772 46.9927 120.832 47.5968 119.241 48.6946C117.578 49.8422 116.578 51.6653 116.43 53.8305C116.32 55.4242 116.69 57.0308 117.407 58.4295C116.08 57.847 114.575 57.5353 112.96 57.5353C109.489 57.5353 106.174 58.934 104.309 61.188C102.601 63.2493 101.947 65.7199 102.413 68.3311C102.742 70.1673 103.578 71.815 104.61 73.1423L99.2861 73.0795C99.2861 73.0795 96.6727 72.8024 95.1722 75.5804C93.7821 77.6936 92.9485 84.8649 94.8755 102.406C95.393 105.101 97.7272 105.129 98.7513 104.428C98.4092 105.101 98.0736 105.781 97.7531 106.463C96.2829 109.59 95.0856 112.686 94.5053 114.54C93.7648 116.908 93.2321 119.314 94.3602 120.849C95.0098 121.732 96.0837 122.178 97.5518 122.178C97.6146 122.178 97.6882 122.172 97.7531 122.17C98.6712 122.148 99.7863 121.981 101.261 121.635C101.609 121.553 101.954 121.464 102.404 121.349L102.489 122.131C102.677 123.928 102.859 125.649 103.069 127.369C103.285 129.161 103.565 130.818 103.896 132.284L103.983 132.678C104.284 134.15 104.914 137.212 108.571 137.307L108.718 137.311L108.861 137.283C111.502 136.807 113.17 135.155 113.717 132.53C114.118 134.15 115.036 136.25 117.165 136.311H117.167C117.427 136.311 117.669 136.25 117.901 136.164C118.191 136.237 118.481 136.285 118.778 136.285C119.317 136.285 119.815 136.149 120.28 135.945C120.226 137.617 120.176 139.286 120.103 140.955C119.914 145.271 119.719 149.733 119.875 154.144C120.036 158.624 120.759 162.244 122.025 164.909C122.725 166.377 124.258 167.949 126.458 167.949C126.757 167.949 127.066 167.921 127.389 167.856C128.649 167.601 130.353 166.001 130.561 163.619C130.572 163.742 130.572 163.851 130.583 163.976C130.585 165.275 130.81 171.812 134.974 172.88C135.026 172.893 135.078 172.906 135.127 172.917C133.272 176.117 130.507 181.114 128.718 184.734C128.467 185.245 128.251 185.733 128.058 186.207C126.871 189.113 126.795 191.299 127.848 192.707C129.004 194.246 130.366 194.963 132.131 194.963C132.925 194.963 133.716 194.818 134.554 194.666C135.281 194.532 136.039 194.402 136.881 194.337C136.957 194.333 137.026 194.32 137.104 194.316C137.591 194.287 138.014 194.27 138.38 194.27C138.724 194.27 138.96 194.285 139.116 194.305C139.14 194.614 139.142 195.086 139.142 195.489C139.144 195.74 139.148 196.035 139.153 196.325C139.161 196.842 139.174 197.399 139.22 198.042C139.495 202.015 140.313 205.263 142.041 209.254C142.775 210.942 144.994 214.143 148.145 214.143C148.766 214.143 149.383 214.015 149.979 213.768C152.949 212.527 153.341 209.76 153.53 208.426C153.543 208.344 153.547 208.255 153.56 208.173C153.787 206.471 153.926 204.691 154.034 202.918C154.088 204.979 154.223 207.032 154.576 208.961C154.589 209.028 154.591 209.1 154.601 209.165C155.273 212.638 157.449 214.805 160.898 215.429L161.084 215.461L161.273 215.457C161.898 215.442 162.444 215.351 162.94 215.214C166.175 214.318 166.839 211.144 167.177 209.503L167.285 208.996C167.712 207.108 168.071 204.979 168.351 202.671C168.619 200.463 168.853 198.248 169.098 195.935L169.206 194.928C169.782 195.076 170.228 195.19 170.674 195.296C172.709 195.775 175.851 196.29 177.075 196.29C178.963 196.29 180.344 195.714 181.18 194.58C181.323 194.385 181.401 194.166 181.479 193.947C181.736 197.468 182.07 201.387 182.507 205.975C182.516 206.051 183.341 213.428 187.53 214.903C187.682 214.955 187.825 215.02 187.985 215.056L188.143 215.091C188.143 215.091 188.641 215.115 188.806 215.115C191.369 215.115 194.459 213.961 195.57 208.868C195.724 208.164 195.841 207.387 195.914 206.525C196.287 201.987 196.579 197.877 196.354 193.543C196.339 193.272 196.326 193.001 196.313 192.728C196.661 197.912 196.993 203.377 197.016 207.742C197.016 207.809 197.021 207.885 197.021 207.952C197.036 211.339 199.433 213.627 201.154 213.974C201.57 214.058 201.968 214.095 202.352 214.095C205.184 214.095 207.154 212.075 208.053 210.185C209.681 206.764 210.612 202.115 210.818 196.364C210.818 196.353 210.818 196.344 210.82 196.334C211.021 190.661 210.77 184.921 210.527 179.369C210.391 176.251 210.255 173.131 210.194 170.011C210.179 169.281 210.172 168.547 210.164 167.813C210.242 167.833 210.313 167.861 210.391 167.876C211.082 171.537 212.377 173.395 214.306 173.395H214.308C217.311 173.308 218.461 170.043 218.89 167.923C219.797 168.528 220.804 168.742 221.726 168.742C221.856 168.742 222.246 168.725 222.246 168.725L222.365 168.696C225.937 167.865 226.617 161.698 226.624 161.636C227.745 149.868 228.027 143.653 228.02 136.058C228.685 136.751 229.651 137.27 231.108 137.307L231.255 137.311L231.4 137.283C234.081 136.8 235.774 135.114 236.294 132.416C236.593 130.872 236.692 129.218 236.736 127.561C236.824 129.005 236.933 130.463 237.127 131.842C237.275 132.877 237.58 135.029 239.89 135.995C240.351 136.188 240.832 136.285 241.313 136.285C243.764 136.285 245.49 133.799 246.059 132.485C247.401 129.382 248.038 126.858 248.25 123.77C248.307 122.988 248.309 122.332 248.313 121.784C248.313 121.473 248.315 121.105 248.333 120.864C248.454 120.849 248.636 120.838 248.904 120.838C249.188 120.838 249.515 120.851 249.896 120.873C250.626 120.914 251.262 121.031 251.879 121.146C252.529 121.263 253.144 121.375 253.763 121.375C255.134 121.375 256.192 120.817 257.089 119.621C258.044 118.348 257.816 116.265 256.415 113.424" fill="white"/>
<path d="M132.726 55.4428C132.52 56.8329 131.925 58.1883 131.098 59.2948L132.343 59.2969C133.129 59.3489 133.887 59.3879 134.645 59.3944C137.726 59.4225 140.073 61.2998 140.224 63.8569C140.434 67.3884 140.521 70.0582 140.393 73.083L145.453 73.1415C144.425 71.8164 143.587 70.1664 143.258 68.3325C142.792 65.7212 143.448 63.2485 145.155 61.1872C147.019 58.9353 150.334 57.5344 153.805 57.5344C156.035 57.5344 158.072 58.1126 159.69 59.2082C160.27 59.6022 160.788 60.0418 161.26 60.503C161.829 59.9877 162.526 59.5828 163.332 59.3273C163.286 58.4633 163.239 57.5821 163.193 56.6553C162.903 51.0322 161.011 49.2697 155.165 49.2264C154.093 49.2199 153.021 49.1203 151.516 49.038C154.723 45.4091 155.792 39.0801 150.351 35.397C146.601 32.8594 140.395 33.877 137.724 37.1054C133.88 41.7455 137.236 47.622 140.608 49.5793C136.468 49.5793 135.487 49.6919 132.468 49.6919C132.468 49.6919 131.97 49.7656 131.312 50.1077C132.499 51.6342 133.018 53.4724 132.726 55.4428Z" fill="black"/>
<path d="M187.289 59.9607C189.205 58.445 191.87 57.5356 194.65 57.5356C196.883 57.5356 198.918 58.1137 200.536 59.2094C203.047 60.9069 204.561 63.2713 204.914 66.0385C205.197 68.2752 204.691 70.6548 203.534 72.7594C203.885 72.7767 204.221 72.7897 204.556 72.7919C206.637 72.8071 208.274 73.0885 209.608 73.6277C209.437 70.2781 209.523 67.4243 209.744 63.581C209.896 60.9589 212.243 59.0361 215.322 59.008C216.082 59.0015 216.84 58.9604 217.626 58.9084C216.738 57.41 216.29 55.6042 216.411 53.8309C216.506 52.4646 216.974 51.2586 217.699 50.2474C216.476 49.5524 214.796 49.2449 212.47 49.2276C211.399 49.2211 210.329 49.1193 208.824 49.0392C212.031 45.4103 213.1 39.0791 207.657 35.3982C203.909 32.8606 197.703 33.8782 195.029 37.1044C191.188 41.7445 194.544 47.6232 197.916 49.5784C193.776 49.5784 192.795 49.691 189.774 49.691C189.774 49.691 185.058 50.3535 185.351 57.6829C185.375 58.2631 185.392 58.8586 185.405 59.4605C186.087 59.5385 186.717 59.7095 187.289 59.9607Z" fill="black"/>
<path d="M175.146 89.2422C175.274 89.2508 175.395 89.2617 175.521 89.2747C175.194 81.0294 175.891 77.0605 176.863 75.5817C178.364 72.8015 180.975 73.0808 180.975 73.0808L183.125 73.1047L184.71 73.1241L185.585 73.135L186.302 73.1415C186.024 72.7864 185.767 72.4053 185.524 72.0069C184.862 70.9156 184.344 69.6749 184.106 68.3325C183.699 66.0611 184.193 63.9154 185.435 62.0338C185.624 61.7501 185.778 61.4557 186.001 61.1872C186.117 61.0464 186.258 60.9165 186.386 60.7823C186.079 60.6805 185.756 60.6004 185.422 60.5528C185.16 60.516 184.896 60.4943 184.626 60.4921C184.212 60.4878 183.786 60.4878 183.365 60.4856C182.315 60.4835 181.239 60.477 180.081 60.4142L178.078 60.4185C180.992 59.0761 183.664 53.4919 179.611 49.8868C177.104 47.6588 172.953 47.492 169.87 49.6205C166.433 51.9892 167.07 57.3395 169.854 59.8924C168.233 59.9833 166.788 60.1197 165.342 60.1327C165.16 60.1349 164.983 60.1565 164.805 60.176C164.307 60.2258 163.833 60.3362 163.391 60.5073C162.858 60.7087 162.384 60.9966 161.99 61.3582C162.635 62.1464 163.172 62.9887 163.525 63.9175C163.781 64.5953 163.971 65.299 164.067 66.0395C164.281 67.7543 164.028 69.5515 163.38 71.2447C163.185 71.76 162.958 72.2689 162.687 72.7604C162.893 72.7712 163.088 72.7734 163.285 72.7777C163.426 72.782 163.569 72.7907 163.709 72.7907C164.075 72.795 164.381 72.8318 164.725 72.8492C164.909 72.86 165.097 72.8686 165.277 72.8816L166.721 73.0635C171.047 73.8105 172.886 76.32 173.156 81.5772L173.239 83.1405C173.327 84.8381 173.401 86.449 173.457 88.0535L173.431 89.2573L175.146 89.2422Z" fill="black"/>
<path d="M119.687 59.9036C121.666 61.5319 122.911 63.6149 123.221 66.0378C123.505 68.2766 123 70.6562 121.844 72.7587C122.193 72.7782 122.528 72.789 122.864 72.7911C124.377 72.8041 125.655 72.9535 126.766 73.2329C127.337 73.3779 127.855 73.5663 128.327 73.7893C129.849 74.5082 130.886 75.6493 131.516 77.31C131.847 78.1783 132.057 79.2111 132.185 80.376C132.228 80.7722 132.289 81.1446 132.311 81.5777L132.393 83.1388C132.412 83.5134 132.428 83.8642 132.447 84.2301C132.449 83.613 132.449 82.9959 132.445 82.3507C132.434 81.4932 132.48 80.5947 132.542 79.6831C132.69 77.4724 132.975 75.1642 133.142 72.9557C133.214 72.0182 133.268 71.0914 133.268 70.2123C133.268 70.2123 133.253 69.0691 133.8 69.041C133.842 69.0388 133.863 69.0821 133.9 69.0929C134.342 69.2272 134.417 70.1994 134.417 70.1994C134.612 71.9835 134.792 73.7677 134.991 75.5497C135.069 76.2274 135.164 76.9051 135.253 77.5807C135.474 76.6756 135.734 76.0152 136.018 75.5821C136.972 73.8131 138.371 73.2848 139.268 73.1333C139.402 70.1149 139.315 67.4733 139.103 63.9202C138.997 62.1577 137.564 60.9928 135.784 60.6247C135.686 60.6052 135.591 60.577 135.491 60.5619C135.212 60.5186 134.926 60.4948 134.636 60.4926C133.19 60.4796 131.713 60.5012 130.091 60.4125L128.114 60.419H128.086C128.095 60.4146 128.106 60.4081 128.114 60.4038C130.804 59.1415 133.255 54.287 130.403 50.7209C130.174 50.4351 129.92 50.1557 129.619 49.8872C129.31 49.6123 128.976 49.3698 128.621 49.1597C126.105 47.6549 122.582 47.7545 119.88 49.6188C116.444 51.9897 117.08 57.3378 119.865 59.8928C119.802 59.8971 119.748 59.9015 119.687 59.9036Z" fill="black"/>
<path d="M219.845 59.8926C218.223 59.9835 216.779 60.1178 215.332 60.1329C214.75 60.1373 214.183 60.2304 213.657 60.3971C213.576 60.4209 213.507 60.4577 213.431 60.4859C212.018 61.0099 210.957 62.1033 210.868 63.645C210.63 67.7156 210.552 70.6344 210.766 74.2157C212.827 75.543 213.812 77.8663 214.003 81.5775L214.007 81.6489C214.332 80.6681 214.486 79.4555 214.486 79.4555C214.633 78.5288 214.728 77.5978 214.837 76.6667C214.988 75.4065 215.144 74.1464 215.27 72.8819C215.361 71.9465 215.454 71.0133 215.553 70.0801C215.553 70.0801 215.623 68.8654 216.17 68.8935C216.718 68.9216 216.703 70.093 216.703 70.093C216.703 72.5787 216.716 75.0644 216.714 77.548C216.714 77.9637 216.707 78.3772 216.707 78.793C216.775 78.3794 216.848 78.0005 216.926 77.6606C217.151 76.7143 217.418 76.028 217.71 75.5819C218.535 74.0576 219.68 73.4665 220.557 73.2305C221.28 73.0356 221.824 73.0789 221.824 73.0789L222.012 73.0811L227.148 73.1417C226.115 71.8144 225.28 70.1667 224.95 68.3305C224.485 65.7193 225.139 63.2487 226.847 61.1874C227.67 60.1914 228.789 59.3773 230.067 58.7623C231.888 56.4629 232.663 52.6109 229.601 49.887C227.096 47.659 222.945 47.4923 219.862 49.6185C219.754 49.6943 219.685 49.7939 219.585 49.874C219.204 50.1793 218.875 50.5171 218.604 50.8917C216.694 53.5571 217.48 57.7252 219.845 59.8926Z" fill="black"/>
<path d="M116.447 105.319C116.778 105.157 117.118 105.01 117.484 104.893C118.277 104.639 119.136 104.488 120.057 104.479C120.864 104.473 121.681 104.423 122.508 104.373C122.67 104.365 122.824 104.365 122.988 104.354C122.811 104.055 122.672 103.732 122.525 103.416C121.722 101.71 121.31 99.7915 121.44 97.8839C121.561 96.1344 122.163 94.5906 123.097 93.298C123.255 93.0814 123.385 92.8411 123.562 92.6419C123.616 90.73 123.66 88.8419 123.623 87.1898C123.614 86.8044 123.608 86.4147 123.588 86.0574C123.694 85.5659 123.794 85.4057 123.993 85.3862C124.177 85.3689 124.294 85.4815 124.465 86.0163C124.469 86.0639 124.474 86.1224 124.478 86.1722C124.61 87.703 124.792 89.5088 124.987 91.3752C125 91.3644 125.011 91.3514 125.024 91.3406C125.091 91.2951 125.169 91.2626 125.236 91.2172C125.656 90.94 126.091 90.6802 126.544 90.4572C127.094 90.1865 127.665 89.957 128.25 89.7686C129.213 89.4612 130.214 89.2966 131.223 89.2317C131.175 87.2137 131.067 85.174 130.95 82.9633C130.926 82.5281 130.904 82.0994 130.883 81.6512C130.852 81.0904 130.794 80.5967 130.731 80.1073C130.71 79.9536 130.699 79.7804 130.673 79.631C130.567 78.9727 130.409 78.4011 130.218 77.8793C129.852 76.879 129.302 76.1276 128.555 75.5712C128.092 75.2269 127.546 74.9519 126.91 74.7484C125.831 74.4084 124.517 74.2352 122.852 74.2222C121.78 74.2157 120.708 74.1139 119.206 74.0338C122.41 70.4049 123.482 64.0759 118.041 60.3928C117.835 60.2543 117.597 60.1655 117.378 60.0486C116.464 59.557 115.455 59.2344 114.392 59.0894C111.051 58.639 107.327 59.7866 105.411 62.1012C101.57 66.7413 104.924 72.6178 108.297 74.573C104.157 74.573 103.176 74.6877 100.158 74.6877C100.158 74.6877 95.44 75.3481 95.7345 82.6775C96.0896 91.5961 95.0849 103.373 97.7525 102.879C98.3501 102.933 98.9823 102.721 99.3807 102.102C99.8636 101.357 100.217 100.398 100.463 99.4797C101.505 95.5736 102.57 87.7485 103.027 86.0986C103.098 85.8387 103.144 85.397 103.334 85.3992C103.544 85.4035 103.523 86.196 103.523 86.196L103.612 99.3043C101.514 101.827 99.3309 106.229 97.7525 109.975C96.9254 111.943 96.2541 113.74 95.8709 114.968C94.5479 119.192 94.955 120.803 97.7525 120.729C98.5948 120.706 99.6319 120.548 100.933 120.24C101.596 120.084 102.25 119.907 103.651 119.549C103.945 122.252 104.188 124.726 104.489 127.197C104.683 128.806 104.95 130.451 105.294 131.969C105.614 133.381 105.824 135.804 108.607 135.875C109.988 135.626 111.827 134.855 112.348 132.145C112.825 129.676 112.773 126.822 112.836 124.144C112.545 119.413 112.643 115.593 112.95 110.304C113.076 108.106 114.429 106.311 116.447 105.319Z" fill="black"/>
<path d="M141.712 104.848C142.713 104.913 143.678 104.965 144.644 104.971C144.746 104.973 144.837 104.993 144.934 104.997C145.43 105.017 145.906 105.073 146.363 105.164C146.487 105.19 146.604 105.224 146.721 105.253C147.255 105.385 147.758 105.558 148.225 105.779C149.973 106.608 151.209 108.028 151.603 109.782C151.668 110.068 151.733 110.352 151.753 110.655C151.763 110.848 151.772 111.016 151.781 111.205C151.824 111.926 151.863 112.64 151.895 113.314C152.937 113.045 154.037 112.898 155.184 112.866C155.221 112.045 155.269 111.198 155.319 110.304C155.511 106.965 158.502 104.516 162.425 104.48C163.393 104.471 164.359 104.417 165.359 104.352C164.224 102.442 163.655 100.143 163.811 97.8842C163.85 97.3408 163.96 96.8276 164.081 96.3209C164.153 96.0178 164.242 95.7298 164.341 95.444C164.346 95.2318 164.348 95.0239 164.354 94.8096C164.402 92.5945 164.488 90.2799 164.484 88.2294C164.482 87.4651 164.471 86.7246 164.434 86.0577C164.501 85.7394 164.573 85.5683 164.666 85.4752C164.714 85.4254 164.768 85.393 164.841 85.3865C165.025 85.3691 165.138 85.4817 165.309 86.0166C165.333 86.2785 165.361 86.5709 165.387 86.8502C165.389 86.8826 165.391 86.913 165.396 86.9454C165.521 88.3485 165.682 89.9205 165.85 91.5444C165.887 91.8973 165.924 92.2481 165.961 92.601C165.972 92.5881 165.987 92.5794 165.998 92.5664C166.095 92.4581 166.223 92.378 166.327 92.2763C166.621 91.9883 166.92 91.7068 167.258 91.46C167.308 91.4253 167.344 91.3755 167.394 91.3409C168.791 90.3773 170.404 89.7364 172.075 89.4181C172.021 86.9411 171.872 84.4619 171.727 81.6514C171.497 77.1586 170.203 75.1535 166.727 74.4975C166.24 74.4065 165.712 74.3351 165.134 74.2939C164.954 74.281 164.763 74.2745 164.575 74.2658C164.281 74.255 164.019 74.2247 163.698 74.2225C163.508 74.2203 163.317 74.2138 163.124 74.2073C162.414 74.1835 161.661 74.1316 160.766 74.0774C160.533 74.0623 160.307 74.0471 160.052 74.0341C160.286 73.7678 160.504 73.4863 160.712 73.194C162.873 70.1887 163.638 65.8798 161.152 62.5367C160.916 62.2206 160.647 61.9153 160.353 61.6186C159.924 61.1878 159.448 60.7742 158.887 60.3931C155.137 57.8555 148.931 58.8731 146.259 62.0993C142.416 66.7394 145.77 72.6181 149.146 74.5733C145.003 74.5733 144.023 74.6859 141.004 74.6859C141.004 74.6859 140.716 74.727 140.288 74.898C139.958 75.0301 139.545 75.238 139.114 75.5671C137.852 76.5285 136.446 78.5162 136.581 82.563C136.581 82.602 136.579 82.6366 136.579 82.6778C136.594 83.0264 136.602 83.388 136.613 83.7452C136.672 85.8455 136.674 88.054 136.669 90.2085C137.585 90.6263 138.451 91.1308 139.192 91.7912C140.628 93.0666 141.576 94.6147 142.018 96.3188C142.804 92.3261 143.52 87.3742 143.873 86.0967C143.945 85.839 143.99 85.3973 144.183 85.3995C144.391 85.4038 144.369 86.1963 144.369 86.1963L144.458 99.3046C143.286 100.712 142.093 102.708 140.989 104.845L141.712 104.848Z" fill="black"/>
<path d="M205.686 85.3862C205.87 85.3689 205.987 85.4815 206.156 86.0163C206.362 88.4674 206.715 91.6763 207.024 94.6816C207.637 93.3435 208.538 92.1872 209.766 91.3406C210.731 90.6737 211.805 90.1606 212.927 89.7947C212.892 87.8806 212.799 85.9708 212.691 83.9204C212.673 83.5371 212.652 83.1365 212.63 82.7425C212.611 82.3787 212.591 82.0258 212.574 81.6512C212.44 79.0681 211.942 77.3272 210.902 76.1666C210.562 75.7834 210.17 75.4499 209.698 75.1923C208.482 74.5276 206.819 74.2396 204.545 74.2223C203.473 74.2158 202.399 74.114 200.897 74.0339C204.106 70.4049 205.173 64.0759 199.732 60.395C196.571 58.2536 191.686 58.6628 188.622 60.7718C188.306 60.9905 188.022 61.2308 187.749 61.4842C187.529 61.6877 187.29 61.8761 187.104 62.1012C186.076 63.3398 185.578 64.6692 185.439 65.9879C185.385 66.5248 185.383 67.0618 185.441 67.5901C185.747 70.2317 187.392 72.6568 189.207 74.0404C189.466 74.2374 189.728 74.4215 189.99 74.573C189.692 74.573 189.443 74.5752 189.174 74.5774C187.702 74.5817 186.643 74.6033 185.721 74.625C185.433 74.6315 185.147 74.6402 184.87 74.6466C184.651 74.651 184.428 74.6553 184.207 74.6596C183.817 74.6683 183.419 74.677 182.979 74.6813C182.631 74.6835 182.263 74.6878 181.849 74.6878C181.849 74.6878 177.131 75.3482 177.426 82.6775C177.514 84.9012 177.519 87.3025 177.517 89.6474C179.03 90.0783 180.424 90.7798 181.563 91.791C181.802 92.0032 182.014 92.2262 182.226 92.4514C182.626 92.878 182.977 93.3305 183.278 93.8047C183.293 93.8263 183.306 93.848 183.319 93.8696C183.324 93.8458 183.328 93.822 183.332 93.7982C183.566 92.4861 183.789 91.1718 183.988 89.9982C184.294 88.1881 184.549 86.7135 184.72 86.0986C184.792 85.8388 184.835 85.3971 185.028 85.3992C185.238 85.4036 185.214 86.1982 185.214 86.1982L185.216 86.5013L185.246 90.8318L185.275 95.119L185.285 96.8555L185.303 99.3044C185.028 99.6378 184.748 100.004 184.471 100.398C184.155 102.002 183.458 103.559 182.497 104.843L184.084 104.847C185.082 104.912 186.05 104.964 187.015 104.971C190.939 105.008 193.929 107.398 194.122 110.655C194.167 111.419 194.204 112.136 194.241 112.841C194.576 112.82 194.903 112.757 195.243 112.757C196.012 112.757 196.787 112.82 197.549 112.935C197.56 112.709 197.575 112.46 197.588 112.231C197.612 111.765 197.636 111.291 197.664 110.802C197.673 110.631 197.681 110.477 197.69 110.304C197.837 107.736 199.647 105.707 202.257 104.884C202.718 104.739 203.205 104.64 203.712 104.575C203.792 104.564 203.876 104.559 203.958 104.553C204.236 104.525 204.506 104.481 204.796 104.479C204.991 104.477 205.193 104.46 205.387 104.453C206.16 104.434 206.931 104.406 207.728 104.354C207.139 103.36 206.713 102.258 206.451 101.115L205.219 99.6573C205.011 95.7902 205.487 89.9246 205.281 86.0596C205.385 85.5659 205.485 85.4057 205.686 85.3862Z" fill="black"/>
<path d="M255.129 114.057C253.516 110.788 250.774 105.886 249.389 103.591L246.063 99.6564C245.857 95.7893 246.333 89.9237 246.126 86.0587C246.234 85.5672 246.331 85.4048 246.531 85.3853C246.715 85.368 246.831 85.4806 247.003 86.0154C247.327 89.8739 248.007 95.6074 248.332 99.4681C248.332 99.4681 248.626 103.482 251.197 102.824C253.524 102.227 253.535 97.2833 253.535 97.2833C254.02 91.6321 253.71 87.3146 253.418 81.6503C253.13 76.0272 251.238 74.2647 245.392 74.2235C244.318 74.2149 243.248 74.1153 241.743 74.0352C244.95 70.4041 246.02 64.0751 240.578 60.3941C238.42 58.9348 235.46 58.6814 232.818 59.318C231.82 59.5584 230.887 59.9243 230.044 60.4136C229.237 60.8792 228.505 61.4291 227.948 62.1004C224.107 66.7405 227.463 72.6169 230.835 74.5743C226.695 74.5743 225.714 74.6869 222.696 74.6869C222.696 74.6869 222.297 74.7475 221.745 75.0009C220.743 75.4642 219.218 76.5793 218.569 79.2296C218.562 79.2556 218.558 79.288 218.551 79.3162C218.389 80.0047 218.291 80.8037 218.274 81.7109C218.265 82.0227 218.259 82.3367 218.272 82.6766C218.356 84.7964 218.365 87.0764 218.363 89.3131C220.093 89.5556 221.684 90.1878 223.042 91.1427C223.1 91.1839 223.157 91.225 223.215 91.2683C223.453 91.4437 223.711 91.5931 223.934 91.7901C224.116 91.9525 224.274 92.1279 224.441 92.2968C224.486 92.0326 224.532 91.7706 224.577 91.5108C224.759 90.4347 224.93 89.4213 225.082 88.5509C225.277 87.425 225.443 86.5394 225.567 86.0977C225.638 85.84 225.681 85.3962 225.872 85.4005C226.082 85.4027 226.06 86.1973 226.06 86.1973L226.117 94.6071C226.931 96.2224 227.223 98.0368 226.939 99.9379C226.725 101.389 226.164 102.803 225.393 104.043C225.222 104.316 225.056 104.591 224.865 104.844L225.491 104.847L226.454 104.849C227.453 104.911 228.418 104.963 229.384 104.972C229.971 104.976 230.527 105.05 231.064 105.156C231.439 105.228 231.807 105.31 232.151 105.429C234.641 106.273 236.347 108.22 236.492 110.654C236.67 113.653 236.774 116.16 236.778 118.641C237.499 119.202 237.67 121.127 237.766 121.963C238.121 125.057 238.11 128.565 238.545 131.641C238.705 132.778 238.98 134.064 240.44 134.673C242.533 135.547 244.266 133.018 244.744 131.914C245.963 129.104 246.608 126.726 246.823 123.671C247.08 119.956 246.115 119.215 249.98 119.442C252.877 119.613 254.412 120.806 255.945 118.76C256.701 117.754 255.835 115.489 255.129 114.057Z" fill="black"/>
<path d="M130.278 142.787C130.349 141.514 130.64 139.015 131.516 138.983C132.863 134.631 136.051 132.751 141.903 132.52C141.972 130.469 142.15 128.339 142.369 126.184C142.319 125.374 142.328 124.569 142.427 123.776C142.492 123.257 142.6 122.754 142.728 122.259C142.748 121.99 142.748 121.739 142.765 121.473C142.797 120.966 142.817 120.47 142.832 119.976C142.845 119.574 142.888 119.145 142.888 118.751C142.888 118.751 142.869 117.296 143.566 117.259C144.172 117.227 144.32 118.365 144.35 118.662C145.281 117.27 146.517 116.031 148.057 114.99C148.795 114.49 149.622 114.104 150.484 113.777C150.445 112.959 150.4 112.104 150.35 111.211C150.339 111.047 150.332 110.902 150.322 110.735C150.3 110.324 150.2 109.947 150.07 109.588C149.767 108.752 149.217 108.052 148.481 107.528C148.011 107.195 147.47 106.937 146.888 106.745C146.66 106.669 146.422 106.61 146.179 106.561C145.72 106.459 145.248 106.392 144.759 106.379C144.716 106.379 144.675 106.37 144.631 106.37C143.228 106.357 141.773 106.353 140.258 106.309C139.786 106.296 139.335 106.294 138.844 106.268H138.694L137.469 106.273L136.291 106.275C136.646 106.112 136.999 105.883 137.343 105.625C137.668 105.383 137.988 105.114 138.289 104.8C138.917 104.144 139.478 103.345 139.915 102.462C141.351 99.5603 141.459 95.7213 138.242 92.8611C137.765 92.4367 137.228 92.0902 136.67 91.7849C136.068 91.4537 135.423 91.2068 134.754 91.0163C134.325 90.895 133.89 90.7998 133.444 90.7348C133.188 90.698 132.93 90.6655 132.668 90.6482C132.551 90.6417 132.439 90.6136 132.32 90.6114C131.963 90.5984 131.603 90.6374 131.244 90.6612C130.064 90.7413 128.886 91.0141 127.755 91.4926C127.195 91.7308 126.651 92.0145 126.125 92.3544C126.032 92.415 125.928 92.4562 125.837 92.519C125.605 92.6792 125.447 92.887 125.246 93.0646C125.22 93.0863 125.196 93.1122 125.17 93.1339C124.456 93.7878 123.867 94.5218 123.496 95.3662C122.531 97.5705 122.695 100.253 123.678 102.529C123.839 102.901 124.051 103.239 124.254 103.585C124.635 104.233 125.075 104.833 125.595 105.352C125.673 105.43 125.733 105.53 125.815 105.606C125.761 105.61 125.716 105.612 125.662 105.616C125.263 105.638 124.897 105.664 124.514 105.69C124.194 105.71 123.871 105.729 123.559 105.751C123.161 105.777 122.754 105.794 122.366 105.816C121.593 105.861 120.827 105.904 120.069 105.911C119.365 105.917 118.681 106.024 118.04 106.216C117.676 106.325 117.328 106.461 116.999 106.628C115.526 107.37 114.478 108.663 114.379 110.387C114.199 113.478 114.093 116.04 114.091 118.573C114.086 122.183 114.296 125.732 114.842 130.657C114.842 130.657 115.191 134.821 117.204 134.88C117.403 134.886 117.577 134.752 117.739 134.57C118.603 133.602 118.991 130.523 118.991 130.523C119.612 126.57 119.922 122.568 120.348 118.584C120.348 118.584 120.437 117.034 121.134 117.071C121.831 117.107 121.812 118.599 121.812 118.599C121.812 123.287 121.868 127.973 121.799 132.658C121.795 133.007 121.799 133.358 121.795 133.708C121.786 134.126 121.764 134.544 121.751 134.962C121.58 141.341 121.078 147.724 121.303 154.092C121.461 158.533 122.173 161.891 123.317 164.292C123.852 165.416 125.172 166.845 127.102 166.453C127.736 166.325 129.161 165.178 129.169 163.166C129.191 157.188 129.951 148.759 130.278 142.787Z" fill="black"/>
<path d="M182.977 120.155C183.653 118.669 184.642 117.303 185.969 116.123C187.84 114.46 190.218 113.382 192.816 112.964C192.779 112.245 192.74 111.515 192.692 110.736C192.532 108.021 189.906 106.394 187.002 106.368C185.37 106.353 183.687 106.362 181.89 106.288C181.661 106.278 181.448 106.282 181.215 106.269H181.126H180.699L179.539 106.273L178.662 106.275C179.097 106.076 179.526 105.795 179.939 105.459C180.431 105.059 180.896 104.576 181.314 104.024C181.873 103.29 182.347 102.443 182.685 101.527C183.213 100.1 183.399 98.5173 183.066 96.9648C183.016 96.7267 182.949 96.4928 182.873 96.259C182.691 95.696 182.447 95.1395 182.104 94.6026C181.717 93.9941 181.23 93.4095 180.613 92.8617C179.723 92.0671 178.66 91.5041 177.516 91.1274C176.893 90.9217 176.25 90.7874 175.587 90.7095C175.461 90.6965 175.34 90.6791 175.215 90.6683C174.652 90.6229 174.089 90.6207 173.515 90.664C173.43 90.6727 173.348 90.6683 173.264 90.677C172.87 90.7181 172.482 90.7939 172.092 90.8784C170.737 91.1707 169.405 91.6925 168.208 92.5196C167.879 92.747 167.636 93.0306 167.366 93.2969C166.937 93.7191 166.577 94.1738 166.285 94.674C166.255 94.726 166.222 94.7736 166.192 94.8277C166.041 95.1049 165.885 95.3799 165.772 95.6744C165.402 96.6357 165.229 97.6685 165.242 98.7208C165.255 98.9807 165.276 99.2318 165.296 99.483C165.343 100.013 165.421 100.537 165.556 101.057C165.906 102.404 166.547 103.655 167.402 104.706C167.654 105.015 167.896 105.338 168.186 105.606C168.039 105.615 167.909 105.624 167.764 105.632C167.359 105.656 166.978 105.682 166.59 105.708C165.159 105.803 163.784 105.899 162.44 105.912C159.536 105.938 156.912 107.603 156.749 110.387C156.698 111.262 156.654 112.085 156.615 112.886C160.712 113.131 164.534 114.854 166.755 117.537C167.257 118.141 167.68 118.78 168.039 119.436C168.305 119.921 168.528 120.419 168.717 120.925C169.384 122.744 169.557 124.702 169.195 126.726C168.771 129.086 167.695 131.208 166.367 132.914H184.259C184.265 132.672 184.276 132.427 184.285 132.182C183.194 130.515 182.392 128.588 182.1 126.605C181.849 124.918 181.966 123.29 182.392 121.757C182.546 121.209 182.743 120.674 182.977 120.155" fill="black"/>
<path d="M210.143 166.31H210.145C210.145 166.303 210.143 166.297 210.143 166.29V166.31Z" fill="black"/>
<path d="M231.686 106.765C231.335 106.646 230.971 106.549 230.59 106.486C230.194 106.417 229.787 106.371 229.374 106.369C228.235 106.358 227.063 106.354 225.862 106.334C225.476 106.328 225.08 106.313 224.684 106.3C224.316 106.287 223.967 106.289 223.584 106.269H223.415L222.215 106.271H221.968L221.031 106.274C221.499 106.059 221.962 105.758 222.404 105.386C222.412 105.379 222.421 105.371 222.43 105.364C222.85 105.005 223.252 104.585 223.62 104.113C223.831 103.842 224.028 103.554 224.214 103.253C224.619 102.595 224.95 101.865 225.192 101.101C225.279 100.826 225.353 100.547 225.415 100.263C225.712 98.8707 225.673 97.3983 225.149 95.9823C224.943 95.4258 224.66 94.8802 224.292 94.3518C224.238 94.2739 224.179 94.1959 224.123 94.118C223.872 93.7845 223.588 93.4619 223.263 93.148C223.207 93.0917 223.159 93.0354 223.101 92.9812C223.06 92.9423 223.027 92.899 222.982 92.86C221.706 91.7254 220.089 91.0304 218.363 90.7532C217.729 90.6536 217.084 90.6211 216.43 90.6385L216.367 90.6428C215.992 90.6558 215.62 90.6644 215.245 90.7164C214.951 90.7575 214.654 90.8333 214.36 90.9004C213.879 91.0065 213.411 91.1516 212.944 91.3248C212.123 91.6301 211.322 92.0069 210.577 92.5179C207.55 94.6095 207.043 98.4983 208.169 101.783C208.672 103.247 209.462 104.602 210.555 105.605C210.274 105.622 210.025 105.639 209.752 105.657C208.28 105.75 206.894 105.841 205.543 105.88C205.298 105.888 205.051 105.908 204.809 105.91C204.573 105.912 204.341 105.942 204.11 105.966C203.923 105.986 203.737 106.005 203.555 106.038C203.027 106.133 202.522 106.289 202.05 106.495C200.422 107.207 199.227 108.545 199.119 110.385C199.112 110.476 199.11 110.554 199.103 110.645C199.075 111.152 199.052 111.63 199.026 112.113C199.006 112.492 198.984 112.886 198.969 113.254C200.829 113.711 202.622 114.458 204.196 115.545C204.857 116.002 205.454 116.526 205.982 117.106C206.195 117.176 206.331 117.381 206.413 117.632C206.859 118.189 207.251 118.791 207.576 119.436C207.806 119.887 208 120.354 208.167 120.839C208.503 121.82 208.728 122.859 208.806 123.961C209.005 126.867 208.273 129.825 206.816 132.282C208.1 132.367 209.345 132.434 210.588 132.445C215.635 132.493 219.481 135.643 219.73 139.937C220.288 149.609 220.329 155.416 219.125 166.279C219.868 167.058 220.849 167.368 222.042 167.301C224.093 166.825 225.06 162.96 225.199 161.502C226.405 148.836 226.632 142.624 226.583 134.212C226.578 133.87 226.613 133.495 226.619 133.142C226.656 131.213 226.814 129.193 227.022 127.14C227.31 124.267 227.628 121.378 227.628 118.75C227.628 118.75 227.609 117.295 228.306 117.258C229.005 117.223 229.094 118.732 229.094 118.732C229.519 122.621 229.83 126.525 230.452 130.386C230.452 130.386 230.991 134.671 232.236 134.636C234.252 134.58 234.6 130.518 234.6 130.518C235.527 122.335 235.501 118.053 235.064 110.734C234.947 108.779 233.542 107.4 231.686 106.765Z" fill="black"/>
<path d="M210.569 134.288C209.244 134.277 207.902 134.199 206.522 134.108C206.059 134.08 205.565 134.05 205.091 134.017C204.868 134.002 204.647 133.989 204.42 133.974C204.39 133.972 204.359 133.972 204.327 133.97C203.937 133.944 203.578 133.918 203.177 133.894C203.876 133.253 204.478 132.497 205.002 131.675C205.046 131.608 205.091 131.538 205.132 131.469C205.767 130.423 206.254 129.271 206.568 128.07C207.109 126.004 207.152 123.81 206.564 121.825C206.438 121.396 206.273 120.981 206.087 120.576C205.812 119.976 205.47 119.404 205.059 118.874C204.535 118.198 203.909 117.583 203.151 117.061C201.826 116.148 200.38 115.507 198.894 115.104C198.427 114.976 197.95 114.89 197.474 114.81C196.419 114.639 195.365 114.587 194.321 114.66C193.843 114.693 193.366 114.734 192.897 114.816C190.766 115.199 188.778 116.091 187.191 117.499C186.979 117.689 186.808 117.891 186.617 118.086C186.132 118.586 185.704 119.099 185.353 119.632C185.31 119.699 185.253 119.761 185.21 119.826C184.74 120.584 184.411 121.368 184.184 122.161C183.556 124.343 183.774 126.604 184.515 128.619C184.699 129.12 184.913 129.598 185.156 130.062C185.303 130.347 185.455 130.627 185.623 130.893C185.777 131.142 185.944 131.376 186.111 131.61C186.448 132.077 186.808 132.519 187.191 132.913C187.971 133.716 188.83 134.355 189.703 134.756H187.955H187.546H186.29H185.645H184.214H164.131H162.811H162.696H161.7H161.624C161.661 134.736 161.698 134.706 161.732 134.684C162.066 134.485 162.395 134.251 162.72 133.998C163.222 133.608 163.707 133.162 164.17 132.662C164.248 132.575 164.326 132.487 164.402 132.4C166.961 129.473 168.613 124.993 166.693 120.859C166.494 120.428 166.245 120.002 165.963 119.58C165.77 119.287 165.573 118.997 165.335 118.711C164.928 118.218 164.445 117.769 163.921 117.36C163.789 117.256 163.638 117.172 163.499 117.072C161.576 115.713 159.084 114.911 156.538 114.753C156.059 114.721 155.585 114.695 155.109 114.712C154.033 114.751 152.982 114.94 151.973 115.236C151.491 115.379 151.019 115.539 150.564 115.745C150.057 115.974 149.548 116.204 149.089 116.514C146.831 118.044 145.456 119.928 144.752 121.935C144.735 121.99 144.72 122.044 144.703 122.098C143.633 125.33 144.304 128.856 145.945 131.737C146.026 131.874 146.097 132.017 146.179 132.151C146.599 132.835 147.074 133.476 147.591 134.063C147.305 134.078 147.052 134.095 146.788 134.111C146.77 134.111 146.751 134.113 146.736 134.113C146.199 134.145 145.696 134.178 145.233 134.206C145.097 134.214 144.96 134.223 144.828 134.23C144.287 134.262 143.774 134.284 143.274 134.295C143.148 134.297 143.025 134.303 142.899 134.305C142.516 134.308 142.2 134.342 141.842 134.357C135.273 134.628 132.989 136.956 132.595 143.627C132.59 143.711 132.575 143.776 132.573 143.861C132.196 151.147 131.798 156.7 132.426 163.971C132.426 163.971 132.43 164.978 132.621 166.234C132.909 168.142 133.627 170.634 135.433 171.097C137.622 171.658 138.525 169.581 138.887 168.116C139.069 167.371 139.116 166.78 139.116 166.78C139.149 166.379 139.19 165.942 139.229 165.513C139.677 160.62 140.441 154.039 140.827 149.475C141.048 148.787 141.195 148.644 141.431 148.665C141.455 148.667 141.47 148.68 141.489 148.685C141.706 148.737 141.829 148.951 141.955 149.531C141.797 152.472 141.946 156.309 142.039 159.985C142.104 162.525 142.141 164.991 142.033 167.024L137.759 172.085C135.975 175.038 132.447 181.343 130.371 185.548C129.464 187.388 128.351 190.305 129.323 191.6C131.295 194.233 133.27 192.698 136.997 192.477C141.968 192.184 140.725 193.135 141.056 197.916C141.329 201.846 142.165 204.905 143.73 208.519C144.348 209.942 146.576 213.194 149.267 212.07C151.149 211.286 151.501 209.632 151.707 208.17C152.266 204.21 152.253 199.698 152.705 195.72C152.848 194.484 153.117 191.403 154.435 191.247C155.587 191.201 155.602 194.581 155.689 195.876C155.962 200.003 155.639 204.81 156.41 208.816C157.083 212.304 159.452 213.296 161.226 213.616C164.805 213.523 165.075 210.407 165.489 208.59C165.931 206.64 166.273 204.522 166.524 202.45C166.909 199.276 167.223 196.091 167.6 192.613C169.404 193.072 170.246 193.302 171.099 193.503C178.324 195.205 179.825 193.791 177.61 186.717C176.296 182.519 172.487 173.267 168.691 167.938C168.345 167.451 167.998 166.985 167.654 166.572L167.656 166.269L167.767 149.709C167.767 149.709 167.739 148.687 168.007 148.683C168.254 148.678 168.31 149.25 168.401 149.581C168.921 151.443 170.036 159.398 171.205 164.723C171.357 165.409 171.508 166.043 171.658 166.624C171.673 166.678 171.688 166.743 171.703 166.797C172.017 167.977 172.474 169.211 173.093 170.168C173.992 171.558 175.834 171.5 176.672 170.43C177.099 169.885 177.285 169.319 177.532 168.445C177.636 168.079 177.751 167.674 177.898 167.172C177.909 167.137 177.917 167.1 177.928 167.065C179.424 161.973 180.436 154.501 181.624 149.475C181.711 149.109 181.752 148.672 181.912 148.687C182.098 148.706 182.148 149.406 182.157 149.475C182.538 152.197 182.644 158.355 182.638 162.631C182.635 163.482 182.631 164.285 182.622 164.944C182.614 165.526 182.607 166.082 182.601 166.643C182.443 179.71 182.603 187.549 184.339 205.802C184.519 207.677 185.764 212.648 188.404 213.263C191.595 213.438 193.646 211.591 194.077 206.373C194.427 202.142 194.737 197.931 194.514 193.637C194.215 187.962 194.161 177.145 195.83 176.826C196.972 176.842 197.346 180.079 197.437 181.726C197.859 189.409 198.836 200.252 198.864 207.943C198.873 210.528 200.704 212.005 201.521 212.172C204.006 212.674 205.704 210.836 206.39 209.392C207.86 206.302 208.779 201.982 208.982 196.268C209.29 187.538 208.519 178.79 208.352 170.047C208.333 168.999 208.343 167.951 208.333 166.903C208.326 166.189 208.324 165.474 208.32 164.757C208.3 160.044 208.328 155.326 208.328 150.612C208.328 150.612 208.302 148.691 209.201 148.644C210.097 148.596 210.212 150.59 210.212 150.59C210.758 155.715 211.158 160.862 211.959 165.95C211.959 165.95 211.979 166.121 212.02 166.392C212.072 166.732 212.156 167.237 212.278 167.806C212.624 169.449 213.265 171.582 214.254 171.554C216.844 171.48 217.292 166.124 217.292 166.124C217.292 166.119 217.294 166.115 217.294 166.111C217.444 164.779 217.569 163.527 217.682 162.337C218.47 153.879 218.381 148.496 217.892 140.045C217.682 136.464 214.306 134.323 210.569 134.288Z" fill="black"/>
</svg>
